<svg width="360" height="768" viewBox="0 0 360 768" fill="none" xmlns="http://www.w3.org/2000/svg">
<path d="M360 0H0V768H360V0Z" fill="white"/>
<g opacity="0.254">
<path d="M178.548 294.707L171.671 297.037L159.479 300.965L111.479 316.425L96.1935 321.352C95.0795 321.708 94.4345 322.615 94.6555 323.525C94.8427 324.021 95.1804 324.44 95.6175 324.719C96.0546 324.998 96.5674 325.122 97.0785 325.073L163.986 324.952C170.877 325.073 171.586 323.973 172.311 321.332L176.387 304.59L178.548 294.707Z" fill="url(#paint0_linear_8822_16593)"/>
<path d="M335.816 294.707L328.939 297.037L316.747 300.966L268.747 316.426L253.461 321.352C252.347 321.708 251.702 322.615 251.923 323.525C252.11 324.021 252.448 324.44 252.885 324.719C253.322 324.999 253.835 325.123 254.346 325.073L321.254 324.953C328.145 325.073 328.854 323.973 329.579 321.332L333.655 304.59L335.816 294.707Z" fill="url(#paint1_linear_8822_16593)"/>
<path d="M22.1862 294.707L15.3092 297.037L3.11716 300.965L-44.8828 316.425L-60.1688 321.352C-61.2828 321.708 -61.9278 322.615 -61.7068 323.525C-61.5196 324.021 -61.1819 324.44 -60.7448 324.719C-60.3077 324.998 -59.7949 325.122 -59.2838 325.073L7.62416 324.952C14.5152 325.073 15.2242 323.973 15.9492 321.332L20.0252 304.59L22.1862 294.707Z" fill="url(#paint2_linear_8822_16593)"/>
<path d="M414.299 294.707L407.422 297.037L395.23 300.965L347.23 316.425L331.944 321.352C330.83 321.708 330.185 322.615 330.406 323.525C330.594 324.021 330.931 324.44 331.368 324.719C331.806 324.998 332.318 325.122 332.829 325.073L399.737 324.952C406.628 325.073 407.337 323.973 408.062 321.332L412.138 304.59L414.299 294.707Z" fill="url(#paint3_linear_8822_16593)"/>
<path d="M100.67 294.707L93.7926 297.037L81.6006 300.966L33.6006 316.426L18.3146 321.352C17.2006 321.708 16.5556 322.615 16.7766 323.525C16.9638 324.021 17.3015 324.44 17.7386 324.719C18.1757 324.999 18.6885 325.123 19.1996 325.073L86.1076 324.953C92.9986 325.073 93.7076 323.973 94.4326 321.332L98.5086 304.59L100.67 294.707Z" fill="url(#paint4_linear_8822_16593)"/>
<path d="M257.937 294.707L251.06 297.037L238.868 300.965L190.868 316.425L175.582 321.352C174.468 321.708 173.823 322.615 174.044 323.525C174.231 324.021 174.569 324.44 175.006 324.719C175.443 324.998 175.956 325.122 176.467 325.073L243.375 324.952C250.266 325.073 250.975 323.973 251.7 321.332L255.776 304.59L257.937 294.707Z" fill="url(#paint5_linear_8822_16593)"/>
<path d="M223.731 108.751L216.854 111.082L204.662 115.01L156.662 130.47L141.376 135.397C140.262 135.752 139.617 136.659 139.838 137.569C140.025 138.065 140.363 138.484 140.8 138.764C141.237 139.043 141.75 139.167 142.261 139.117L209.169 138.997C216.06 139.117 216.769 138.018 217.494 135.377L221.57 118.634L223.731 108.751Z" fill="url(#paint6_linear_8822_16593)"/>
<path d="M380.999 108.751L374.122 111.082L361.93 115.01L313.93 130.47L298.644 135.397C297.53 135.752 296.885 136.659 297.106 137.569C297.293 138.065 297.631 138.484 298.068 138.764C298.505 139.043 299.018 139.167 299.529 139.117L366.437 138.997C373.328 139.117 374.037 138.018 374.762 135.377L378.838 118.634L380.999 108.751Z" fill="url(#paint7_linear_8822_16593)"/>
<path d="M67.3688 108.751L60.4918 111.082L48.2998 115.01L0.29978 130.47L-14.9862 135.397C-16.1002 135.752 -16.7452 136.659 -16.5242 137.569C-16.337 138.065 -15.9993 138.484 -15.5622 138.764C-15.1251 139.043 -14.6123 139.167 -14.1012 139.117L52.8068 138.997C59.6978 139.117 60.4068 138.018 61.1318 135.377L65.2078 118.634L67.3688 108.751Z" fill="url(#paint8_linear_8822_16593)"/>
<path d="M145.852 108.751L138.975 111.082L126.783 115.01L78.7832 130.47L63.4972 135.397C62.3832 135.752 61.7382 136.659 61.9592 137.569C62.1464 138.065 62.4841 138.484 62.9212 138.764C63.3583 139.043 63.8711 139.167 64.3822 139.117L131.29 138.997C138.181 139.117 138.89 138.018 139.615 135.377L143.691 118.634L145.852 108.751Z" fill="url(#paint9_linear_8822_16593)"/>
<path d="M303.12 108.751L296.243 111.082L284.051 115.01L236.051 130.47L220.765 135.397C219.651 135.752 219.006 136.659 219.227 137.569C219.414 138.065 219.752 138.484 220.189 138.764C220.626 139.043 221.139 139.167 221.65 139.117L288.558 138.997C295.449 139.117 296.158 138.018 296.883 135.377L300.959 118.634L303.12 108.751Z" fill="url(#paint10_linear_8822_16593)"/>
<path d="M133.269 480.661L126.392 482.992L114.2 486.92L66.2002 502.38L50.9142 507.306C49.8002 507.662 49.1552 508.569 49.3762 509.479C49.5634 509.975 49.9011 510.394 50.3382 510.674C50.7753 510.953 51.2881 511.077 51.7992 511.027L118.707 510.907C125.598 511.027 126.307 509.927 127.032 507.287L131.108 490.544L133.269 480.661Z" fill="url(#paint11_linear_8822_16593)"/>
<path d="M290.538 480.661L283.661 482.992L271.469 486.92L223.469 502.38L208.183 507.306C207.069 507.662 206.424 508.569 206.645 509.479C206.832 509.975 207.17 510.394 207.607 510.674C208.044 510.953 208.557 511.077 209.068 511.027L275.976 510.907C282.867 511.027 283.576 509.927 284.301 507.287L288.377 490.544L290.538 480.661Z" fill="url(#paint12_linear_8822_16593)"/>
<path d="M369.02 480.661L362.143 482.992L349.951 486.92L301.951 502.38L286.665 507.306C285.551 507.662 284.906 508.569 285.127 509.479C285.314 509.975 285.652 510.394 286.089 510.674C286.526 510.953 287.039 511.077 287.55 511.027L354.458 510.907C361.349 511.027 362.058 509.927 362.783 507.287L366.859 490.544L369.02 480.661Z" fill="url(#paint13_linear_8822_16593)"/>
<path d="M55.3903 480.661L48.5133 482.992L36.3213 486.92L-11.6787 502.38L-26.9647 507.306C-28.0787 507.662 -28.7237 508.569 -28.5027 509.479C-28.3155 509.975 -27.9778 510.394 -27.5407 510.674C-27.1036 510.953 -26.5908 511.077 -26.0797 511.027L40.8283 510.907C47.7193 511.027 48.4283 509.927 49.1533 507.287L53.2293 490.544L55.3903 480.661Z" fill="url(#paint14_linear_8822_16593)"/>
<path d="M212.659 480.661L205.782 482.992L193.59 486.92L145.59 502.38L130.304 507.306C129.19 507.662 128.545 508.569 128.766 509.479C128.953 509.975 129.291 510.394 129.728 510.674C130.165 510.953 130.678 511.077 131.189 511.027L198.097 510.907C204.988 511.027 205.697 509.927 206.422 507.287L210.498 490.544L212.659 480.661Z" fill="url(#paint15_linear_8822_16593)"/>
<path d="M246.371 15.7749L239.494 18.1053L227.302 22.0336L179.302 37.4936L164.016 42.42C162.902 42.7759 162.257 43.6828 162.478 44.5927C162.665 45.0886 163.003 45.5079 163.44 45.7872C163.877 46.0664 164.39 46.1906 164.901 46.1408L231.809 46.0204C238.7 46.1408 239.409 45.041 240.134 42.4003L244.21 25.6579L246.371 15.7749Z" fill="url(#paint16_linear_8822_16593)"/>
<path d="M403.638 15.7749L396.761 18.1053L384.569 22.0336L336.569 37.4936L321.283 42.42C320.169 42.7759 319.524 43.6828 319.745 44.5927C319.933 45.0886 320.27 45.5079 320.707 45.7872C321.144 46.0664 321.657 46.1906 322.168 46.1408L389.076 46.0204C395.967 46.1408 396.676 45.041 397.401 42.4003L401.477 25.6579L403.638 15.7749Z" fill="url(#paint17_linear_8822_16593)"/>
<path d="M90.0084 15.7749L83.1314 18.1053L70.9394 22.0336L22.9394 37.4936L7.65343 42.42C6.53943 42.7759 5.89443 43.6828 6.11543 44.5927C6.30267 45.0886 6.64033 45.5079 7.07744 45.7872C7.51454 46.0664 8.02735 46.1906 8.53843 46.1408L75.4464 46.0204C82.3374 46.1408 83.0464 45.041 83.7714 42.4003L87.8474 25.6579L90.0084 15.7749Z" fill="url(#paint18_linear_8822_16593)"/>
<path d="M168.492 15.7749L161.615 18.1053L149.423 22.0336L101.423 37.4936L86.1368 42.42C85.0228 42.7759 84.3778 43.6828 84.5988 44.5927C84.7861 45.0886 85.1237 45.5079 85.5608 45.7872C85.9979 46.0664 86.5107 46.1906 87.0218 46.1408L153.93 46.0204C160.821 46.1408 161.53 45.041 162.255 42.4003L166.331 25.6579L168.492 15.7749Z" fill="url(#paint19_linear_8822_16593)"/>
<path d="M325.759 15.7749L318.882 18.1053L306.69 22.0336L258.69 37.4936L243.404 42.42C242.29 42.7759 241.645 43.6828 241.866 44.5927C242.054 45.0886 242.391 45.5079 242.828 45.7872C243.266 46.0664 243.778 46.1906 244.289 46.1408L311.197 46.0204C318.088 46.1408 318.797 45.041 319.522 42.4003L323.598 25.6579L325.759 15.7749Z" fill="url(#paint20_linear_8822_16593)"/>
<path d="M12.1285 15.7749L5.25154 18.1053L-6.94046 22.0336L-54.9405 37.4936L-70.2265 42.42C-71.3405 42.7759 -71.9855 43.6828 -71.7645 44.5927C-71.5772 45.0886 -71.2395 45.5079 -70.8024 45.7872C-70.3653 46.0664 -69.8525 46.1906 -69.3415 46.1408L-2.43346 46.0204C4.45754 46.1408 5.16654 45.041 5.89154 42.4003L9.96754 25.6579L12.1285 15.7749Z" fill="url(#paint21_linear_8822_16593)"/>
<path d="M155.909 387.684L149.032 390.014L136.84 393.943L88.8398 409.403L73.5538 414.329C72.4398 414.685 71.7948 415.592 72.0158 416.502C72.2031 416.998 72.5407 417.417 72.9778 417.696C73.4149 417.975 73.9277 418.099 74.4388 418.05L141.347 417.929C148.238 418.05 148.947 416.95 149.672 414.309L153.748 397.567L155.909 387.684Z" fill="url(#paint22_linear_8822_16593)"/>
<path d="M313.176 387.684L306.299 390.014L294.107 393.943L246.107 409.403L230.821 414.329C229.707 414.685 229.062 415.592 229.283 416.502C229.471 416.998 229.808 417.417 230.245 417.696C230.683 417.975 231.195 418.099 231.706 418.05L298.614 417.929C305.505 418.05 306.214 416.95 306.939 414.309L311.015 397.567L313.176 387.684Z" fill="url(#paint23_linear_8822_16593)"/>
<path d="M391.66 387.684L384.783 390.014L372.591 393.943L324.591 409.403L309.305 414.329C308.191 414.685 307.546 415.592 307.767 416.502C307.954 416.998 308.292 417.417 308.729 417.696C309.166 417.975 309.679 418.099 310.19 418.05L377.098 417.929C383.989 418.05 384.698 416.95 385.423 414.309L389.499 397.567L391.66 387.684Z" fill="url(#paint24_linear_8822_16593)"/>
<path d="M78.0299 387.684L71.1529 390.014L58.9609 393.943L10.9609 409.403L-4.32509 414.329C-5.43909 414.685 -6.08409 415.592 -5.86309 416.502C-5.67585 416.998 -5.33818 417.417 -4.90108 417.696C-4.46398 417.975 -3.95117 418.099 -3.44009 418.05L63.4679 417.929C70.3589 418.05 71.0679 416.95 71.7929 414.309L75.8689 397.567L78.0299 387.684Z" fill="url(#paint25_linear_8822_16593)"/>
<path d="M235.297 387.684L228.42 390.014L216.228 393.943L168.228 409.403L152.942 414.329C151.828 414.685 151.183 415.592 151.404 416.502C151.592 416.998 151.929 417.417 152.366 417.696C152.804 417.975 153.316 418.099 153.827 418.05L220.735 417.929C227.626 418.05 228.335 416.95 229.06 414.309L233.136 397.567L235.297 387.684Z" fill="url(#paint26_linear_8822_16593)"/>
<path d="M201.091 201.729L194.214 204.059L182.022 207.988L134.022 223.448L118.736 228.374C117.622 228.73 116.977 229.637 117.198 230.547C117.386 231.043 117.723 231.462 118.16 231.741C118.598 232.021 119.11 232.145 119.621 232.095L186.529 231.975C193.42 232.095 194.129 230.995 194.854 228.354L198.93 211.612L201.091 201.729Z" fill="url(#paint27_linear_8822_16593)"/>
<path d="M358.359 201.729L351.482 204.059L339.29 207.988L291.29 223.448L276.004 228.374C274.89 228.73 274.245 229.637 274.466 230.547C274.653 231.043 274.991 231.462 275.428 231.741C275.865 232.021 276.378 232.145 276.889 232.095L343.797 231.975C350.688 232.095 351.397 230.995 352.122 228.354L356.198 211.612L358.359 201.729Z" fill="url(#paint28_linear_8822_16593)"/>
<path d="M44.7291 201.729L37.8521 204.059L25.6601 207.988L-22.3399 223.448L-37.6259 228.374C-38.7399 228.73 -39.3849 229.637 -39.1639 230.547C-38.9766 231.043 -38.639 231.462 -38.2019 231.741C-37.7648 232.021 -37.2519 232.145 -36.7409 232.095L30.1671 231.975C37.0581 232.095 37.7671 230.995 38.4921 228.354L42.5681 211.612L44.7291 201.729Z" fill="url(#paint29_linear_8822_16593)"/>
<path d="M436.842 201.729L429.965 204.059L417.773 207.988L369.773 223.448L354.487 228.374C353.373 228.73 352.728 229.637 352.949 230.547C353.137 231.043 353.474 231.462 353.911 231.741C354.349 232.021 354.861 232.145 355.372 232.095L422.28 231.975C429.171 232.095 429.88 230.995 430.605 228.354L434.681 211.612L436.842 201.729Z" fill="url(#paint30_linear_8822_16593)"/>
<path d="M123.213 201.729L116.336 204.059L104.144 207.988L56.1435 223.448L40.8575 228.374C39.7435 228.73 39.0985 229.637 39.3195 230.547C39.5068 231.043 39.8444 231.462 40.2815 231.741C40.7186 232.021 41.2314 232.145 41.7425 232.095L108.651 231.975C115.542 232.095 116.251 230.995 116.976 228.354L121.052 211.612L123.213 201.729Z" fill="url(#paint31_linear_8822_16593)"/>
<path d="M280.48 201.729L273.603 204.059L261.411 207.988L213.411 223.448L198.125 228.374C197.011 228.73 196.366 229.637 196.587 230.547C196.774 231.043 197.112 231.462 197.549 231.741C197.986 232.021 198.499 232.145 199.01 232.095L265.918 231.975C272.809 232.095 273.518 230.995 274.243 228.354L278.319 211.612L280.48 201.729Z" fill="url(#paint32_linear_8822_16593)"/>
<path d="M424.26 573.639L417.383 575.97L405.191 579.898L357.191 595.358L341.905 600.285C340.791 600.64 340.146 601.547 340.367 602.457C340.555 602.953 340.892 603.372 341.329 603.652C341.766 603.931 342.279 604.055 342.79 604.005L409.698 603.885C416.589 604.005 417.298 602.905 418.023 600.265L422.099 583.522L424.26 573.639Z" fill="url(#paint33_linear_8822_16593)"/>
<path d="M110.63 573.639L103.753 575.97L91.5615 579.898L43.5615 595.358L28.2755 600.285C27.1615 600.64 26.5165 601.547 26.7375 602.457C26.9247 602.953 27.2624 603.372 27.6995 603.652C28.1366 603.931 28.6494 604.055 29.1605 604.005L96.0685 603.885C102.959 604.005 103.668 602.905 104.393 600.265L108.469 583.522L110.63 573.639Z" fill="url(#paint34_linear_8822_16593)"/>
<path d="M267.898 573.639L261.021 575.97L248.829 579.898L200.829 595.358L185.543 600.285C184.429 600.64 183.784 601.547 184.005 602.457C184.192 602.953 184.53 603.372 184.967 603.652C185.404 603.931 185.917 604.055 186.428 604.005L253.336 603.885C260.227 604.005 260.936 602.905 261.661 600.265L265.737 583.522L267.898 573.639Z" fill="url(#paint35_linear_8822_16593)"/>
<path d="M346.381 573.639L339.504 575.97L327.312 579.898L279.312 595.358L264.026 600.285C262.912 600.64 262.267 601.547 262.488 602.457C262.676 602.953 263.013 603.372 263.45 603.652C263.888 603.931 264.4 604.055 264.911 604.005L331.819 603.885C338.71 604.005 339.419 602.905 340.144 600.265L344.22 583.522L346.381 573.639Z" fill="url(#paint36_linear_8822_16593)"/>
<path d="M32.7516 573.639L25.8746 575.97L13.6826 579.898L-34.3174 595.358L-49.6034 600.285C-50.7174 600.64 -51.3624 601.547 -51.1414 602.457C-50.9542 602.953 -50.6165 603.372 -50.1794 603.652C-49.7423 603.931 -49.2295 604.055 -48.7184 604.005L18.1896 603.885C25.0806 604.005 25.7896 602.905 26.5146 600.265L30.5906 583.522L32.7516 573.639Z" fill="url(#paint37_linear_8822_16593)"/>
<path d="M190.019 573.639L183.142 575.97L170.95 579.898L122.95 595.358L107.664 600.285C106.55 600.64 105.905 601.547 106.126 602.457C106.313 602.953 106.651 603.372 107.088 603.652C107.525 603.931 108.038 604.055 108.549 604.005L175.457 603.885C182.348 604.005 183.057 602.905 183.782 600.265L187.858 583.522L190.019 573.639Z" fill="url(#paint38_linear_8822_16593)"/>
<path d="M171.002 325.698L164.125 328.029L151.933 331.957L103.933 347.417L88.6466 352.344C87.5326 352.699 86.8876 353.606 87.1086 354.516C87.2958 355.012 87.6335 355.431 88.0706 355.711C88.5077 355.99 89.0205 356.114 89.5316 356.064L156.44 355.944C163.331 356.064 164.04 354.965 164.765 352.324L168.841 335.581L171.002 325.698Z" fill="url(#paint39_linear_8822_16593)"/>
<path d="M328.269 325.698L321.392 328.029L309.2 331.957L261.2 347.417L245.914 352.344C244.8 352.699 244.155 353.606 244.376 354.516C244.563 355.012 244.901 355.431 245.338 355.711C245.775 355.99 246.288 356.114 246.799 356.064L313.707 355.944C320.598 356.064 321.307 354.965 322.032 352.324L326.108 335.581L328.269 325.698Z" fill="url(#paint40_linear_8822_16593)"/>
<path d="M14.6393 325.698L7.76228 328.029L-4.42972 331.957L-52.4297 347.417L-67.7157 352.344C-68.8297 352.699 -69.4747 353.606 -69.2537 354.516C-69.0665 355.012 -68.7288 355.431 -68.2917 355.711C-67.8546 355.99 -67.3418 356.114 -66.8307 356.064L0.0772858 355.944C6.96828 356.064 7.67728 354.965 8.40228 352.324L12.4783 335.581L14.6393 325.698Z" fill="url(#paint41_linear_8822_16593)"/>
<path d="M406.753 325.698L399.876 328.029L387.684 331.957L339.684 347.417L324.398 352.344C323.284 352.699 322.639 353.606 322.86 354.516C323.047 355.012 323.384 355.431 323.822 355.711C324.259 355.99 324.771 356.114 325.283 356.064L392.191 355.944C399.082 356.064 399.791 354.965 400.516 352.324L404.592 335.581L406.753 325.698Z" fill="url(#paint42_linear_8822_16593)"/>
<path d="M93.1227 325.698L86.2457 328.029L74.0537 331.957L26.0537 347.417L10.7677 352.344C9.65369 352.699 9.00869 353.606 9.22969 354.516C9.41693 355.012 9.75459 355.431 10.1917 355.711C10.6288 355.99 11.1416 356.114 11.6527 356.064L78.5607 355.944C85.4517 356.064 86.1607 354.965 86.8857 352.324L90.9617 335.581L93.1227 325.698Z" fill="url(#paint43_linear_8822_16593)"/>
<path d="M250.39 325.698L243.513 328.029L231.321 331.957L183.321 347.417L168.035 352.344C166.921 352.699 166.276 353.606 166.497 354.516C166.685 355.012 167.022 355.431 167.459 355.711C167.896 355.99 168.409 356.114 168.92 356.064L235.828 355.944C242.719 356.064 243.428 354.965 244.153 352.324L248.229 335.581L250.39 325.698Z" fill="url(#paint44_linear_8822_16593)"/>
<path d="M216.184 139.744L209.307 142.075L197.115 146.003L149.115 161.463L133.829 166.389C132.715 166.745 132.07 167.652 132.291 168.562C132.478 169.058 132.816 169.477 133.253 169.756C133.69 170.036 134.203 170.16 134.714 170.11L201.622 169.99C208.513 170.11 209.222 169.01 209.947 166.37L214.023 149.627L216.184 139.744Z" fill="url(#paint45_linear_8822_16593)"/>
<path d="M373.453 139.744L366.576 142.075L354.384 146.003L306.384 161.463L291.098 166.389C289.984 166.745 289.339 167.652 289.56 168.562C289.747 169.058 290.085 169.477 290.522 169.756C290.959 170.036 291.472 170.16 291.983 170.11L358.891 169.99C365.782 170.11 366.491 169.01 367.216 166.37L371.292 149.627L373.453 139.744Z" fill="url(#paint46_linear_8822_16593)"/>
<path d="M59.8229 139.744L52.9459 142.075L40.7539 146.003L-7.24612 161.463L-22.5321 166.389C-23.6461 166.745 -24.2911 167.652 -24.0701 168.562C-23.8829 169.058 -23.5452 169.477 -23.1081 169.756C-22.671 170.036 -22.1582 170.16 -21.6471 170.11L45.2609 169.99C52.1519 170.11 52.8609 169.01 53.5859 166.37L57.6619 149.627L59.8229 139.744Z" fill="url(#paint47_linear_8822_16593)"/>
<path d="M138.305 139.744L131.428 142.075L119.236 146.003L71.2363 161.463L55.9503 166.389C54.8363 166.745 54.1913 167.652 54.4123 168.562C54.5995 169.058 54.9372 169.477 55.3743 169.756C55.8114 170.036 56.3242 170.16 56.8353 170.11L123.743 169.99C130.634 170.11 131.343 169.01 132.068 166.37L136.144 149.627L138.305 139.744Z" fill="url(#paint48_linear_8822_16593)"/>
<path d="M295.574 139.744L288.697 142.075L276.505 146.003L228.505 161.463L213.219 166.389C212.105 166.745 211.46 167.652 211.681 168.562C211.868 169.058 212.206 169.477 212.643 169.756C213.08 170.036 213.593 170.16 214.104 170.11L281.012 169.99C287.903 170.11 288.612 169.01 289.337 166.37L293.413 149.627L295.574 139.744Z" fill="url(#paint49_linear_8822_16593)"/>
<path d="M439.352 511.654L432.475 513.985L420.283 517.913L372.283 533.373L356.997 538.299C355.883 538.655 355.238 539.562 355.459 540.472C355.646 540.968 355.984 541.387 356.421 541.667C356.858 541.946 357.371 542.07 357.882 542.02L424.79 541.9C431.681 542.02 432.39 540.92 433.115 538.28L437.191 521.537L439.352 511.654Z" fill="url(#paint50_linear_8822_16593)"/>
<path d="M125.722 511.654L118.845 513.985L106.653 517.913L58.6533 533.373L43.3673 538.299C42.2533 538.655 41.6083 539.562 41.8293 540.472C42.0165 540.968 42.3542 541.387 42.7913 541.667C43.2284 541.946 43.7412 542.07 44.2523 542.02L111.16 541.9C118.051 542.02 118.76 540.92 119.485 538.28L123.561 521.537L125.722 511.654Z" fill="url(#paint51_linear_8822_16593)"/>
<path d="M282.991 511.654L276.114 513.985L263.922 517.913L215.922 533.373L200.636 538.299C199.522 538.655 198.877 539.562 199.098 540.472C199.285 540.968 199.623 541.387 200.06 541.667C200.497 541.946 201.01 542.07 201.521 542.02L268.429 541.9C275.32 542.02 276.029 540.92 276.754 538.28L280.83 521.537L282.991 511.654Z" fill="url(#paint52_linear_8822_16593)"/>
<path d="M361.473 511.654L354.596 513.985L342.404 517.913L294.404 533.373L279.118 538.299C278.004 538.655 277.359 539.562 277.58 540.472C277.768 540.968 278.105 541.387 278.542 541.667C278.979 541.946 279.492 542.07 280.003 542.02L346.911 541.9C353.802 542.02 354.511 540.92 355.236 538.28L359.312 521.537L361.473 511.654Z" fill="url(#paint53_linear_8822_16593)"/>
<path d="M47.8434 511.654L40.9664 513.985L28.7744 517.913L-19.2256 533.373L-34.5116 538.299C-35.6256 538.655 -36.2706 539.562 -36.0496 540.472C-35.8624 540.968 -35.5247 541.387 -35.0876 541.667C-34.6505 541.946 -34.1377 542.07 -33.6266 542.02L33.2814 541.9C40.1724 542.02 40.8814 540.92 41.6064 538.28L45.6824 521.537L47.8434 511.654Z" fill="url(#paint54_linear_8822_16593)"/>
<path d="M205.112 511.654L198.235 513.985L186.043 517.913L138.043 533.373L122.757 538.299C121.643 538.655 120.998 539.562 121.219 540.472C121.406 540.968 121.744 541.387 122.181 541.667C122.618 541.946 123.131 542.07 123.642 542.02L190.55 541.9C197.441 542.02 198.15 540.92 198.875 538.28L202.951 521.537L205.112 511.654Z" fill="url(#paint55_linear_8822_16593)"/>
<path d="M238.825 46.7671L231.948 49.0975L219.756 53.0258L171.756 68.4858L156.47 73.4122C155.356 73.7681 154.711 74.6749 154.932 75.5849C155.119 76.0808 155.457 76.5001 155.894 76.7793C156.331 77.0586 156.844 77.1827 157.355 77.133L224.263 77.0126C231.154 77.133 231.863 76.0331 232.588 73.3925L236.664 56.6501L238.825 46.7671Z" fill="url(#paint56_linear_8822_16593)"/>
<path d="M396.092 46.7671L389.215 49.0975L377.023 53.0258L329.023 68.4858L313.737 73.4122C312.623 73.7681 311.978 74.6749 312.199 75.5849C312.387 76.0808 312.724 76.5001 313.161 76.7793C313.599 77.0586 314.111 77.1827 314.622 77.133L381.53 77.0126C388.421 77.133 389.13 76.0331 389.855 73.3925L393.931 56.6501L396.092 46.7671Z" fill="url(#paint57_linear_8822_16593)"/>
<path d="M82.4625 46.7671L75.5855 49.0975L63.3935 53.0258L15.3935 68.4858L0.107529 73.4122C-1.00647 73.7681 -1.65147 74.6749 -1.43047 75.5849C-1.24323 76.0808 -0.905566 76.5001 -0.468462 76.7793C-0.031359 77.0586 0.481449 77.1827 0.992529 77.133L67.9005 77.0126C74.7915 77.133 75.5005 76.0331 76.2255 73.3925L80.3015 56.6501L82.4625 46.7671Z" fill="url(#paint58_linear_8822_16593)"/>
<path d="M160.946 46.7671L154.069 49.0975L141.877 53.0258L93.8769 68.4858L78.5909 73.4122C77.4769 73.7681 76.8319 74.6749 77.0529 75.5849C77.2402 76.0808 77.5778 76.5001 78.0149 76.7793C78.452 77.0586 78.9648 77.1827 79.4759 77.133L146.384 77.0126C153.275 77.133 153.984 76.0331 154.709 73.3925L158.785 56.6501L160.946 46.7671Z" fill="url(#paint59_linear_8822_16593)"/>
<path d="M318.214 46.7671L311.337 49.0975L299.145 53.0258L251.145 68.4858L235.859 73.4122C234.745 73.7681 234.1 74.6749 234.321 75.5849C234.508 76.0808 234.845 76.5001 235.283 76.7793C235.72 77.0586 236.232 77.1827 236.744 77.133L303.652 77.0126C310.543 77.133 311.252 76.0331 311.977 73.3925L316.053 56.6501L318.214 46.7671Z" fill="url(#paint60_linear_8822_16593)"/>
<path d="M4.58264 46.7671L-2.29436 49.0975L-14.4864 53.0258L-62.4864 68.4858L-77.7724 73.4122C-78.8864 73.7681 -79.5314 74.6749 -79.3104 75.5849C-79.1231 76.0808 -78.7854 76.5001 -78.3483 76.7793C-77.9112 77.0586 -77.3984 77.1827 -76.8874 77.133L-9.97935 77.0126C-3.08836 77.133 -2.37936 76.0331 -1.65436 73.3925L2.42165 56.6501L4.58264 46.7671Z" fill="url(#paint61_linear_8822_16593)"/>
<path d="M148.363 418.676L141.486 421.007L129.294 424.935L81.2939 440.395L66.0079 445.321C64.8939 445.677 64.2489 446.584 64.4699 447.494C64.6572 447.99 64.9948 448.409 65.4319 448.689C65.869 448.968 66.3818 449.092 66.8929 449.042L133.801 448.922C140.692 449.042 141.401 447.942 142.126 445.302L146.202 428.559L148.363 418.676Z" fill="url(#paint62_linear_8822_16593)"/>
<path d="M305.63 418.676L298.753 421.007L286.561 424.935L238.561 440.395L223.275 445.321C222.161 445.677 221.516 446.584 221.737 447.494C221.925 447.99 222.262 448.409 222.7 448.689C223.137 448.968 223.649 449.092 224.16 449.042L291.068 448.922C297.959 449.042 298.668 447.942 299.393 445.302L303.469 428.559L305.63 418.676Z" fill="url(#paint63_linear_8822_16593)"/>
<path d="M384.114 418.676L377.237 421.007L365.045 424.935L317.045 440.395L301.759 445.321C300.645 445.677 300 446.584 300.221 447.494C300.408 447.99 300.746 448.409 301.183 448.689C301.62 448.968 302.133 449.092 302.644 449.042L369.552 448.922C376.443 449.042 377.152 447.942 377.877 445.302L381.953 428.559L384.114 418.676Z" fill="url(#paint64_linear_8822_16593)"/>
<path d="M70.484 418.676L63.607 421.007L51.415 424.935L3.41501 440.395L-11.871 445.321C-12.985 445.677 -13.63 446.584 -13.409 447.494C-13.2217 447.99 -12.8841 448.409 -12.447 448.689C-12.0099 448.968 -11.4971 449.092 -10.986 449.042L55.922 448.922C62.813 449.042 63.522 447.942 64.247 445.302L68.323 428.559L70.484 418.676Z" fill="url(#paint65_linear_8822_16593)"/>
<path d="M227.752 418.676L220.875 421.007L208.683 424.935L160.683 440.395L145.397 445.321C144.283 445.677 143.638 446.584 143.859 447.494C144.046 447.99 144.383 448.409 144.821 448.689C145.258 448.968 145.771 449.092 146.282 449.042L213.19 448.922C220.081 449.042 220.79 447.942 221.515 445.302L225.591 428.559L227.752 418.676Z" fill="url(#paint66_linear_8822_16593)"/>
<path d="M193.546 232.722L186.669 235.052L174.477 238.98L126.477 254.44L111.191 259.367C110.077 259.723 109.432 260.63 109.653 261.539C109.84 262.035 110.177 262.455 110.615 262.734C111.052 263.013 111.564 263.137 112.076 263.088L178.984 262.967C185.875 263.088 186.584 261.988 187.309 259.347L191.385 242.605L193.546 232.722Z" fill="url(#paint67_linear_8822_16593)"/>
<path d="M350.813 232.722L343.936 235.052L331.744 238.98L283.744 254.44L268.458 259.367C267.344 259.723 266.699 260.63 266.92 261.539C267.107 262.035 267.445 262.455 267.882 262.734C268.319 263.013 268.832 263.137 269.343 263.088L336.251 262.967C343.142 263.088 343.851 261.988 344.576 259.347L348.652 242.605L350.813 232.722Z" fill="url(#paint68_linear_8822_16593)"/>
<path d="M37.1832 232.722L30.3062 235.052L18.1142 238.98L-29.8858 254.44L-45.1718 259.367C-46.2858 259.723 -46.9308 260.63 -46.7098 261.539C-46.5225 262.035 -46.1849 262.455 -45.7478 262.734C-45.3107 263.013 -44.7978 263.137 -44.2868 263.088L22.6212 262.967C29.5122 263.088 30.2212 261.988 30.9462 259.347L35.0222 242.605L37.1832 232.722Z" fill="url(#paint69_linear_8822_16593)"/>
<path d="M429.297 232.722L422.42 235.052L410.228 238.98L362.228 254.44L346.942 259.367C345.828 259.723 345.183 260.63 345.404 261.539C345.591 262.035 345.928 262.455 346.366 262.734C346.803 263.013 347.315 263.137 347.827 263.088L414.735 262.967C421.626 263.088 422.335 261.988 423.06 259.347L427.136 242.605L429.297 232.722Z" fill="url(#paint70_linear_8822_16593)"/>
<path d="M115.667 232.722L108.79 235.052L96.5976 238.98L48.5976 254.44L33.3116 259.367C32.1976 259.723 31.5526 260.63 31.7736 261.539C31.9609 262.035 32.2985 262.455 32.7356 262.734C33.1727 263.013 33.6856 263.137 34.1966 263.088L101.105 262.967C107.996 263.088 108.705 261.988 109.43 259.347L113.506 242.605L115.667 232.722Z" fill="url(#paint71_linear_8822_16593)"/>
<path d="M272.934 232.722L266.057 235.052L253.865 238.98L205.865 254.44L190.579 259.367C189.465 259.723 188.82 260.63 189.041 261.539C189.228 262.035 189.566 262.455 190.003 262.734C190.44 263.013 190.953 263.137 191.464 263.088L258.372 262.967C265.263 263.088 265.972 261.988 266.697 259.347L270.773 242.605L272.934 232.722Z" fill="url(#paint72_linear_8822_16593)"/>
<path d="M416.714 604.631L409.837 606.961L397.645 610.89L349.645 626.35L334.359 631.276C333.245 631.632 332.6 632.539 332.821 633.449C333.008 633.945 333.345 634.364 333.783 634.643C334.22 634.922 334.732 635.047 335.244 634.997L402.152 634.876C409.043 634.997 409.752 633.897 410.477 631.256L414.553 614.514L416.714 604.631Z" fill="url(#paint73_linear_8822_16593)"/>
<path d="M103.084 604.631L96.2066 606.961L84.0146 610.89L36.0146 626.35L20.7286 631.276C19.6146 631.632 18.9696 632.539 19.1906 633.449C19.3779 633.945 19.7155 634.364 20.1526 634.643C20.5897 634.922 21.1025 635.047 21.6136 634.997L88.5216 634.876C95.4126 634.997 96.1216 633.897 96.8466 631.256L100.923 614.514L103.084 604.631Z" fill="url(#paint74_linear_8822_16593)"/>
<path d="M260.351 604.631L253.474 606.961L241.282 610.89L193.282 626.35L177.996 631.276C176.882 631.632 176.237 632.539 176.458 633.449C176.645 633.945 176.983 634.364 177.42 634.643C177.857 634.922 178.37 635.047 178.881 634.997L245.789 634.876C252.68 634.997 253.389 633.897 254.114 631.256L258.19 614.514L260.351 604.631Z" fill="url(#paint75_linear_8822_16593)"/>
<path d="M338.835 604.631L331.958 606.961L319.766 610.89L271.766 626.35L256.48 631.276C255.366 631.632 254.721 632.539 254.942 633.449C255.129 633.945 255.467 634.364 255.904 634.643C256.341 634.922 256.854 635.047 257.365 634.997L324.273 634.876C331.164 634.997 331.873 633.897 332.598 631.256L336.674 614.514L338.835 604.631Z" fill="url(#paint76_linear_8822_16593)"/>
<path d="M25.2047 604.631L18.3277 606.961L6.13571 610.89L-41.8643 626.35L-57.1503 631.276C-58.2643 631.632 -58.9093 632.539 -58.6883 633.449C-58.501 633.945 -58.1634 634.364 -57.7263 634.643C-57.2892 634.922 -56.7764 635.047 -56.2653 634.997L10.6427 634.876C17.5337 634.997 18.2427 633.897 18.9677 631.256L23.0437 614.514L25.2047 604.631Z" fill="url(#paint77_linear_8822_16593)"/>
<path d="M182.472 604.631L175.595 606.961L163.403 610.89L115.403 626.35L100.117 631.276C99.0033 631.632 98.3583 632.539 98.5793 633.449C98.7665 633.945 99.1042 634.364 99.5413 634.643C99.9784 634.922 100.491 635.047 101.002 634.997L167.91 634.876C174.801 634.997 175.51 633.897 176.235 631.256L180.311 614.514L182.472 604.631Z" fill="url(#paint78_linear_8822_16593)"/>
<path d="M253.918 -15.2178L247.041 -12.8874L234.849 -8.95907L186.849 6.50091L171.563 11.4273C170.449 11.7832 169.804 12.6901 170.025 13.6C170.212 14.096 170.55 14.5152 170.987 14.7945C171.424 15.0738 171.937 15.1979 172.448 15.1481L239.356 15.0278C246.247 15.1481 246.956 14.0483 247.681 11.4076L251.757 -5.3348L253.918 -15.2178Z" fill="url(#paint79_linear_8822_16593)"/>
<path d="M411.185 -15.2178L404.308 -12.8874L392.116 -8.95907L344.116 6.50091L328.83 11.4273C327.716 11.7832 327.071 12.6901 327.292 13.6C327.479 14.096 327.817 14.5152 328.254 14.7945C328.691 15.0738 329.204 15.1979 329.715 15.1481L396.623 15.0278C403.514 15.1481 404.223 14.0483 404.948 11.4076L409.024 -5.3348L411.185 -15.2178Z" fill="url(#paint80_linear_8822_16593)"/>
<path d="M97.5553 -15.2178L90.6783 -12.8874L78.4863 -8.95907L30.4863 6.50091L15.2003 11.4273C14.0863 11.7832 13.4413 12.6901 13.6623 13.6C13.8495 14.096 14.1872 14.5152 14.6243 14.7945C15.0614 15.0738 15.5742 15.1979 16.0853 15.1481L82.9933 15.0278C89.8843 15.1481 90.5933 14.0483 91.3183 11.4076L95.3943 -5.3348L97.5553 -15.2178Z" fill="url(#paint81_linear_8822_16593)"/>
<path d="M176.039 -15.2178L169.162 -12.8874L156.97 -8.95907L108.97 6.50091L93.6837 11.4273C92.5697 11.7832 91.9247 12.6901 92.1457 13.6C92.3329 14.096 92.6706 14.5152 93.1077 14.7945C93.5448 15.0738 94.0576 15.1979 94.5687 15.1481L161.477 15.0278C168.368 15.1481 169.077 14.0483 169.802 11.4076L173.878 -5.3348L176.039 -15.2178Z" fill="url(#paint82_linear_8822_16593)"/>
<path d="M333.306 -15.2178L326.429 -12.8874L314.237 -8.95907L266.237 6.50091L250.951 11.4273C249.837 11.7832 249.192 12.6901 249.413 13.6C249.601 14.096 249.938 14.5152 250.375 14.7945C250.812 15.0738 251.325 15.1979 251.836 15.1481L318.744 15.0278C325.635 15.1481 326.344 14.0483 327.069 11.4076L331.145 -5.3348L333.306 -15.2178Z" fill="url(#paint83_linear_8822_16593)"/>
<path d="M19.6754 -15.2178L12.7984 -12.8874L0.606415 -8.95907L-47.3936 6.50091L-62.6796 11.4273C-63.7936 11.7832 -64.4386 12.6901 -64.2176 13.6C-64.0303 14.096 -63.6927 14.5152 -63.2556 14.7945C-62.8185 15.0738 -62.3057 15.1979 -61.7946 15.1481L5.11342 15.0278C12.0044 15.1481 12.7134 14.0483 13.4384 11.4076L17.5144 -5.3348L19.6754 -15.2178Z" fill="url(#paint84_linear_8822_16593)"/>
<path d="M163.456 356.691L156.579 359.021L144.387 362.95L96.3867 378.41L81.1007 383.336C79.9867 383.692 79.3417 384.599 79.5627 385.509C79.7499 386.005 80.0876 386.424 80.5247 386.703C80.9618 386.982 81.4746 387.107 81.9857 387.057L148.894 386.936C155.785 387.057 156.494 385.957 157.219 383.316L161.295 366.574L163.456 356.691Z" fill="url(#paint85_linear_8822_16593)"/>
<path d="M320.723 356.691L313.846 359.021L301.654 362.949L253.654 378.409L238.368 383.336C237.254 383.692 236.609 384.599 236.83 385.508C237.018 386.004 237.355 386.424 237.792 386.703C238.229 386.982 238.742 387.106 239.253 387.057L306.161 386.936C313.052 387.057 313.761 385.957 314.486 383.316L318.562 366.574L320.723 356.691Z" fill="url(#paint86_linear_8822_16593)"/>
<path d="M7.09338 356.691L0.216385 359.021L-11.9756 362.95L-59.9756 378.41L-75.2616 383.336C-76.3756 383.692 -77.0206 384.599 -76.7996 385.509C-76.6124 386.005 -76.2747 386.424 -75.8376 386.703C-75.4005 386.982 -74.8877 387.107 -74.3766 387.057L-7.46861 386.936C-0.577614 387.057 0.131386 385.957 0.856384 383.316L4.93239 366.574L7.09338 356.691Z" fill="url(#paint87_linear_8822_16593)"/>
<path d="M399.207 356.691L392.33 359.021L380.138 362.95L332.138 378.41L316.852 383.336C315.738 383.692 315.093 384.599 315.314 385.509C315.501 386.005 315.839 386.424 316.276 386.703C316.713 386.982 317.226 387.107 317.737 387.057L384.645 386.936C391.536 387.057 392.245 385.957 392.97 383.316L397.046 366.574L399.207 356.691Z" fill="url(#paint88_linear_8822_16593)"/>
<path d="M85.5768 356.691L78.6998 359.021L66.5078 362.949L18.5078 378.409L3.22179 383.336C2.10779 383.692 1.46279 384.599 1.68379 385.508C1.87103 386.004 2.20869 386.424 2.6458 386.703C3.0829 386.982 3.59571 387.106 4.10679 387.057L71.0148 386.936C77.9058 387.057 78.6148 385.957 79.3398 383.316L83.4158 366.574L85.5768 356.691Z" fill="url(#paint89_linear_8822_16593)"/>
<path d="M242.844 356.691L235.967 359.021L223.775 362.95L175.775 378.41L160.489 383.336C159.375 383.692 158.73 384.599 158.951 385.509C159.139 386.005 159.476 386.424 159.913 386.703C160.35 386.982 160.863 387.107 161.374 387.057L228.282 386.936C235.173 387.057 235.882 385.957 236.607 383.316L240.683 366.574L242.844 356.691Z" fill="url(#paint90_linear_8822_16593)"/>
<path d="M208.638 170.737L201.761 173.067L189.569 176.996L141.569 192.455L126.283 197.382C125.169 197.738 124.524 198.645 124.745 199.555C124.933 200.051 125.27 200.47 125.707 200.749C126.144 201.028 126.657 201.152 127.168 201.103L194.076 200.982C200.967 201.103 201.676 200.003 202.401 197.362L206.477 180.62L208.638 170.737Z" fill="url(#paint91_linear_8822_16593)"/>
<path d="M365.907 170.737L359.03 173.067L346.838 176.996L298.838 192.455L283.552 197.382C282.438 197.738 281.793 198.645 282.014 199.555C282.201 200.051 282.539 200.47 282.976 200.749C283.413 201.028 283.926 201.152 284.437 201.103L351.345 200.982C358.236 201.103 358.945 200.003 359.67 197.362L363.746 180.62L365.907 170.737Z" fill="url(#paint92_linear_8822_16593)"/>
<path d="M52.277 170.737L45.4 173.067L33.208 176.996L-14.792 192.455L-30.078 197.382C-31.192 197.738 -31.837 198.645 -31.616 199.555C-31.4288 200.051 -31.0911 200.47 -30.654 200.749C-30.2169 201.028 -29.7041 201.152 -29.193 201.103L37.715 200.982C44.606 201.103 45.315 200.003 46.04 197.362L50.116 180.62L52.277 170.737Z" fill="url(#paint93_linear_8822_16593)"/>
<path d="M130.759 170.737L123.882 173.067L111.69 176.996L63.6904 192.455L48.4044 197.382C47.2904 197.738 46.6454 198.645 46.8664 199.555C47.0536 200.051 47.3913 200.47 47.8284 200.749C48.2655 201.028 48.7783 201.152 49.2894 201.103L116.197 200.982C123.088 201.103 123.797 200.003 124.522 197.362L128.598 180.62L130.759 170.737Z" fill="url(#paint94_linear_8822_16593)"/>
<path d="M288.028 170.737L281.151 173.067L268.959 176.996L220.959 192.455L205.673 197.382C204.559 197.738 203.914 198.645 204.135 199.555C204.322 200.051 204.66 200.47 205.097 200.749C205.534 201.028 206.047 201.152 206.558 201.103L273.466 200.982C280.357 201.103 281.066 200.003 281.791 197.362L285.867 180.62L288.028 170.737Z" fill="url(#paint95_linear_8822_16593)"/>
<path d="M431.806 542.646L424.929 544.977L412.737 548.905L364.737 564.365L349.451 569.292C348.337 569.647 347.692 570.554 347.913 571.464C348.101 571.96 348.438 572.379 348.875 572.659C349.312 572.938 349.825 573.062 350.336 573.012L417.244 572.892C424.135 573.012 424.844 571.913 425.569 569.272L429.645 552.529L431.806 542.646Z" fill="url(#paint96_linear_8822_16593)"/>
<path d="M118.176 542.646L111.299 544.977L99.1074 548.905L51.1074 564.365L35.8214 569.292C34.7074 569.647 34.0624 570.554 34.2834 571.464C34.4706 571.96 34.8083 572.379 35.2454 572.659C35.6825 572.938 36.1953 573.062 36.7064 573.012L103.614 572.892C110.505 573.012 111.214 571.913 111.939 569.272L116.015 552.529L118.176 542.646Z" fill="url(#paint97_linear_8822_16593)"/>
<path d="M275.444 542.646L268.567 544.977L256.375 548.905L208.375 564.365L193.089 569.292C191.975 569.647 191.33 570.554 191.551 571.464C191.738 571.96 192.076 572.379 192.513 572.659C192.95 572.938 193.463 573.062 193.974 573.012L260.882 572.892C267.773 573.012 268.482 571.913 269.207 569.272L273.283 552.529L275.444 542.646Z" fill="url(#paint98_linear_8822_16593)"/>
<path d="M353.927 542.646L347.05 544.977L334.858 548.905L286.858 564.365L271.572 569.292C270.458 569.647 269.813 570.554 270.034 571.464C270.222 571.96 270.559 572.379 270.996 572.659C271.433 572.938 271.946 573.062 272.457 573.012L339.365 572.892C346.256 573.012 346.965 571.913 347.69 569.272L351.766 552.529L353.927 542.646Z" fill="url(#paint99_linear_8822_16593)"/>
<path d="M40.2975 542.646L33.4205 544.977L21.2285 548.905L-26.7715 564.365L-42.0575 569.292C-43.1715 569.647 -43.8165 570.554 -43.5955 571.464C-43.4083 571.96 -43.0706 572.379 -42.6335 572.659C-42.1964 572.938 -41.6836 573.062 -41.1725 573.012L25.7355 572.892C32.6265 573.012 33.3355 571.913 34.0605 569.272L38.1365 552.529L40.2975 542.646Z" fill="url(#paint100_linear_8822_16593)"/>
<path d="M197.565 542.646L190.688 544.977L178.496 548.905L130.496 564.365L115.21 569.292C114.096 569.647 113.451 570.554 113.672 571.464C113.859 571.96 114.197 572.379 114.634 572.659C115.071 572.938 115.584 573.062 116.095 573.012L183.003 572.892C189.894 573.012 190.603 571.913 191.328 569.272L195.404 552.529L197.565 542.646Z" fill="url(#paint101_linear_8822_16593)"/>
<path d="M231.279 77.7588L224.402 80.0892L212.21 84.0175L164.21 99.4775L148.924 104.404C147.81 104.76 147.165 105.667 147.386 106.577C147.573 107.073 147.911 107.492 148.348 107.771C148.785 108.05 149.298 108.174 149.809 108.125L216.717 108.004C223.608 108.125 224.317 107.025 225.042 104.384L229.118 87.6418L231.279 77.7588Z" fill="url(#paint102_linear_8822_16593)"/>
<path d="M388.547 77.7588L381.67 80.0892L369.478 84.0175L321.478 99.4775L306.192 104.404C305.078 104.76 304.433 105.667 304.654 106.577C304.841 107.073 305.178 107.492 305.616 107.771C306.053 108.05 306.565 108.174 307.077 108.125L373.985 108.004C380.876 108.125 381.585 107.025 382.31 104.384L386.386 87.6418L388.547 77.7588Z" fill="url(#paint103_linear_8822_16593)"/>
<path d="M74.9166 77.7588L68.0396 80.0892L55.8476 84.0175L7.84763 99.4775L-7.43837 104.404C-8.55237 104.76 -9.19737 105.667 -8.97637 106.577C-8.78913 107.073 -8.45146 107.492 -8.01436 107.771C-7.57726 108.05 -7.06445 108.174 -6.55337 108.125L60.3546 108.004C67.2456 108.125 67.9546 107.025 68.6796 104.384L72.7556 87.6418L74.9166 77.7588Z" fill="url(#paint104_linear_8822_16593)"/>
<path d="M153.4 77.7588L146.523 80.0892L134.331 84.0175L86.331 99.4775L71.045 104.404C69.931 104.76 69.286 105.667 69.507 106.577C69.6943 107.073 70.0319 107.492 70.469 107.771C70.9061 108.05 71.4189 108.174 71.93 108.125L138.838 108.004C145.729 108.125 146.438 107.025 147.163 104.384L151.239 87.6418L153.4 77.7588Z" fill="url(#paint105_linear_8822_16593)"/>
<path d="M310.668 77.7588L303.791 80.0892L291.599 84.0175L243.599 99.4775L228.313 104.404C227.199 104.76 226.554 105.667 226.775 106.577C226.962 107.073 227.3 107.492 227.737 107.771C228.174 108.05 228.687 108.174 229.198 108.125L296.106 108.004C302.997 108.125 303.706 107.025 304.431 104.384L308.507 87.6418L310.668 77.7588Z" fill="url(#paint106_linear_8822_16593)"/>
<path d="M140.817 449.669L133.94 451.999L121.748 455.928L73.748 471.388L58.462 476.314C57.348 476.67 56.703 477.577 56.924 478.487C57.1113 478.983 57.4489 479.402 57.886 479.681C58.3231 479.96 58.8359 480.085 59.347 480.035L126.255 479.914C133.146 480.035 133.855 478.935 134.58 476.294L138.656 459.552L140.817 449.669Z" fill="url(#paint107_linear_8822_16593)"/>
<path d="M298.085 449.669L291.208 451.999L279.016 455.928L231.016 471.388L215.73 476.314C214.616 476.67 213.971 477.577 214.192 478.487C214.379 478.983 214.717 479.402 215.154 479.681C215.591 479.96 216.104 480.085 216.615 480.035L283.523 479.914C290.414 480.035 291.123 478.935 291.848 476.294L295.924 459.552L298.085 449.669Z" fill="url(#paint108_linear_8822_16593)"/>
<path d="M376.568 449.669L369.691 451.999L357.499 455.928L309.499 471.388L294.213 476.314C293.099 476.67 292.454 477.577 292.675 478.487C292.862 478.983 293.2 479.402 293.637 479.681C294.074 479.96 294.587 480.085 295.098 480.035L362.006 479.914C368.897 480.035 369.606 478.935 370.331 476.294L374.407 459.552L376.568 449.669Z" fill="url(#paint109_linear_8822_16593)"/>
<path d="M62.9381 449.669L56.0611 451.999L43.8691 455.928L-4.13088 471.388L-19.4169 476.314C-20.5309 476.67 -21.1759 477.577 -20.9549 478.487C-20.7676 478.983 -20.43 479.402 -19.9929 479.681C-19.5558 479.96 -19.043 480.085 -18.5319 480.035L48.3761 479.914C55.2671 480.035 55.9761 478.935 56.7011 476.294L60.7771 459.552L62.9381 449.669Z" fill="url(#paint110_linear_8822_16593)"/>
<path d="M220.206 449.669L213.329 451.999L201.137 455.928L153.137 471.388L137.851 476.314C136.737 476.67 136.092 477.577 136.313 478.487C136.5 478.983 136.838 479.402 137.275 479.681C137.712 479.96 138.225 480.085 138.736 480.035L205.644 479.914C212.535 480.035 213.244 478.935 213.969 476.294L218.045 459.552L220.206 449.669Z" fill="url(#paint111_linear_8822_16593)"/>
<path d="M186 263.714L179.123 266.045L166.931 269.973L118.931 285.433L103.645 290.359C102.531 290.715 101.886 291.622 102.107 292.532C102.294 293.028 102.632 293.447 103.069 293.727C103.506 294.006 104.019 294.13 104.53 294.08L171.438 293.96C178.329 294.08 179.038 292.98 179.763 290.34L183.839 273.597L186 263.714Z" fill="url(#paint112_linear_8822_16593)"/>
<path d="M343.267 263.714L336.39 266.045L324.198 269.973L276.198 285.433L260.912 290.359C259.798 290.715 259.153 291.622 259.374 292.532C259.561 293.028 259.899 293.447 260.336 293.727C260.773 294.006 261.286 294.13 261.797 294.08L328.705 293.96C335.596 294.08 336.305 292.98 337.03 290.34L341.106 273.597L343.267 263.714Z" fill="url(#paint113_linear_8822_16593)"/>
<path d="M29.6373 263.714L22.7603 266.045L10.5683 269.973L-37.4317 285.433L-52.7177 290.359C-53.8317 290.715 -54.4767 291.622 -54.2557 292.532C-54.0684 293.028 -53.7308 293.447 -53.2937 293.727C-52.8566 294.006 -52.3437 294.13 -51.8327 294.08L15.0753 293.96C21.9663 294.08 22.6753 292.98 23.4003 290.34L27.4763 273.597L29.6373 263.714Z" fill="url(#paint114_linear_8822_16593)"/>
<path d="M421.751 263.714L414.874 266.045L402.682 269.973L354.682 285.433L339.396 290.359C338.282 290.715 337.637 291.622 337.858 292.532C338.045 293.028 338.383 293.447 338.82 293.727C339.257 294.006 339.77 294.13 340.281 294.08L407.189 293.96C414.08 294.08 414.789 292.98 415.514 290.34L419.59 273.597L421.751 263.714Z" fill="url(#paint115_linear_8822_16593)"/>
<path d="M108.121 263.714L101.244 266.045L89.0517 269.973L41.0517 285.433L25.7657 290.359C24.6517 290.715 24.0067 291.622 24.2277 292.532C24.415 293.028 24.7526 293.447 25.1897 293.727C25.6268 294.006 26.1397 294.13 26.6507 294.08L93.5587 293.96C100.45 294.08 101.159 292.98 101.884 290.34L105.96 273.597L108.121 263.714Z" fill="url(#paint116_linear_8822_16593)"/>
<path d="M265.388 263.714L258.511 266.045L246.319 269.973L198.319 285.433L183.033 290.359C181.919 290.715 181.274 291.622 181.495 292.532C181.683 293.028 182.02 293.447 182.457 293.727C182.894 294.006 183.407 294.13 183.918 294.08L250.826 293.96C257.717 294.08 258.426 292.98 259.151 290.34L263.227 273.597L265.388 263.714Z" fill="url(#paint117_linear_8822_16593)"/>
<path d="M409.168 635.623L402.291 637.954L390.099 641.882L342.099 657.342L326.813 662.268C325.699 662.624 325.054 663.531 325.275 664.441C325.462 664.937 325.8 665.356 326.237 665.636C326.674 665.915 327.187 666.039 327.698 665.989L394.606 665.869C401.497 665.989 402.206 664.889 402.931 662.249L407.007 645.506L409.168 635.623Z" fill="url(#paint118_linear_8822_16593)"/>
<path d="M95.5377 635.623L88.6607 637.954L76.4687 641.882L28.4687 657.342L13.1827 662.268C12.0687 662.624 11.4237 663.531 11.6447 664.441C11.832 664.937 12.1696 665.356 12.6067 665.636C13.0438 665.915 13.5566 666.039 14.0677 665.989L80.9757 665.869C87.8667 665.989 88.5757 664.889 89.3007 662.249L93.3767 645.506L95.5377 635.623Z" fill="url(#paint119_linear_8822_16593)"/>
<path d="M252.805 635.623L245.928 637.954L233.736 641.882L185.736 657.342L170.45 662.268C169.336 662.624 168.691 663.531 168.912 664.441C169.1 664.937 169.437 665.356 169.874 665.636C170.311 665.915 170.824 666.039 171.335 665.989L238.243 665.869C245.134 665.989 245.843 664.889 246.568 662.249L250.644 645.506L252.805 635.623Z" fill="url(#paint120_linear_8822_16593)"/>
<path d="M331.289 635.623L324.412 637.954L312.22 641.882L264.22 657.342L248.934 662.268C247.82 662.624 247.175 663.531 247.396 664.441C247.583 664.937 247.921 665.356 248.358 665.636C248.795 665.915 249.308 666.039 249.819 665.989L316.727 665.869C323.618 665.989 324.327 664.889 325.052 662.249L329.128 645.506L331.289 635.623Z" fill="url(#paint121_linear_8822_16593)"/>
<path d="M17.6588 635.623L10.7818 637.954L-1.41019 641.882L-49.4102 657.342L-64.6962 662.268C-65.8102 662.624 -66.4552 663.531 -66.2342 664.441C-66.0469 664.937 -65.7093 665.356 -65.2722 665.636C-64.8351 665.915 -64.3223 666.039 -63.8112 665.989L3.09682 665.869C9.98782 665.989 10.6968 664.889 11.4218 662.249L15.4978 645.506L17.6588 635.623Z" fill="url(#paint122_linear_8822_16593)"/>
<path d="M174.926 635.623L168.049 637.954L155.857 641.882L107.857 657.342L92.5714 662.268C91.4574 662.624 90.8124 663.531 91.0334 664.441C91.2206 664.937 91.5583 665.356 91.9954 665.636C92.4325 665.915 92.9453 666.039 93.4564 665.989L160.364 665.869C167.255 665.989 167.964 664.889 168.689 662.249L172.765 645.506L174.926 635.623Z" fill="url(#paint123_linear_8822_16593)"/>
</g>
<path d="M360 0H0V768H360V0Z" fill="url(#paint124_linear_8822_16593)"/>
<path d="M360 0H0V768H360V0Z" fill="url(#paint125_linear_8822_16593)"/>
<defs>
<linearGradient id="paint0_linear_8822_16593" x1="94.6123" y1="325.083" x2="115.955" y2="272.596" gradientUnits="userSpaceOnUse">
<stop stop-color="#F15B2B"/>
<stop offset="0.281" stop-color="#F15B2B"/>
<stop offset="0.746" stop-color="#F6C224"/>
<stop offset="1" stop-color="#F7DF22"/>
</linearGradient>
<linearGradient id="paint1_linear_8822_16593" x1="251.88" y1="325.084" x2="273.223" y2="272.596" gradientUnits="userSpaceOnUse">
<stop stop-color="#F15B2B"/>
<stop offset="0.281" stop-color="#F15B2B"/>
<stop offset="0.746" stop-color="#F6C224"/>
<stop offset="1" stop-color="#F7DF22"/>
</linearGradient>
<linearGradient id="paint2_linear_8822_16593" x1="-61.75" y1="325.083" x2="-40.407" y2="272.596" gradientUnits="userSpaceOnUse">
<stop stop-color="#F15B2B"/>
<stop offset="0.281" stop-color="#F15B2B"/>
<stop offset="0.746" stop-color="#F6C224"/>
<stop offset="1" stop-color="#F7DF22"/>
</linearGradient>
<linearGradient id="paint3_linear_8822_16593" x1="330.363" y1="325.083" x2="351.706" y2="272.596" gradientUnits="userSpaceOnUse">
<stop stop-color="#F15B2B"/>
<stop offset="0.281" stop-color="#F15B2B"/>
<stop offset="0.746" stop-color="#F6C224"/>
<stop offset="1" stop-color="#F7DF22"/>
</linearGradient>
<linearGradient id="paint4_linear_8822_16593" x1="16.7334" y1="325.084" x2="38.0764" y2="272.596" gradientUnits="userSpaceOnUse">
<stop stop-color="#F15B2B"/>
<stop offset="0.281" stop-color="#F15B2B"/>
<stop offset="0.746" stop-color="#F6C224"/>
<stop offset="1" stop-color="#F7DF22"/>
</linearGradient>
<linearGradient id="paint5_linear_8822_16593" x1="174.001" y1="325.083" x2="195.344" y2="272.596" gradientUnits="userSpaceOnUse">
<stop stop-color="#F15B2B"/>
<stop offset="0.281" stop-color="#F15B2B"/>
<stop offset="0.746" stop-color="#F6C224"/>
<stop offset="1" stop-color="#F7DF22"/>
</linearGradient>
<linearGradient id="paint6_linear_8822_16593" x1="139.795" y1="139.128" x2="161.138" y2="86.6406" gradientUnits="userSpaceOnUse">
<stop stop-color="#F15B2B"/>
<stop offset="0.281" stop-color="#F15B2B"/>
<stop offset="0.746" stop-color="#F6C224"/>
<stop offset="1" stop-color="#F7DF22"/>
</linearGradient>
<linearGradient id="paint7_linear_8822_16593" x1="297.063" y1="139.128" x2="318.406" y2="86.6406" gradientUnits="userSpaceOnUse">
<stop stop-color="#F15B2B"/>
<stop offset="0.281" stop-color="#F15B2B"/>
<stop offset="0.746" stop-color="#F6C224"/>
<stop offset="1" stop-color="#F7DF22"/>
</linearGradient>
<linearGradient id="paint8_linear_8822_16593" x1="-16.5674" y1="139.128" x2="4.77566" y2="86.6406" gradientUnits="userSpaceOnUse">
<stop stop-color="#F15B2B"/>
<stop offset="0.281" stop-color="#F15B2B"/>
<stop offset="0.746" stop-color="#F6C224"/>
<stop offset="1" stop-color="#F7DF22"/>
</linearGradient>
<linearGradient id="paint9_linear_8822_16593" x1="61.916" y1="139.128" x2="83.2591" y2="86.6406" gradientUnits="userSpaceOnUse">
<stop stop-color="#F15B2B"/>
<stop offset="0.281" stop-color="#F15B2B"/>
<stop offset="0.746" stop-color="#F6C224"/>
<stop offset="1" stop-color="#F7DF22"/>
</linearGradient>
<linearGradient id="paint10_linear_8822_16593" x1="219.184" y1="139.128" x2="240.527" y2="86.6406" gradientUnits="userSpaceOnUse">
<stop stop-color="#F15B2B"/>
<stop offset="0.281" stop-color="#F15B2B"/>
<stop offset="0.746" stop-color="#F6C224"/>
<stop offset="1" stop-color="#F7DF22"/>
</linearGradient>
<linearGradient id="paint11_linear_8822_16593" x1="49.333" y1="511.038" x2="70.6761" y2="458.551" gradientUnits="userSpaceOnUse">
<stop stop-color="#F15B2B"/>
<stop offset="0.281" stop-color="#F15B2B"/>
<stop offset="0.746" stop-color="#F6C224"/>
<stop offset="1" stop-color="#F7DF22"/>
</linearGradient>
<linearGradient id="paint12_linear_8822_16593" x1="206.602" y1="511.038" x2="227.945" y2="458.551" gradientUnits="userSpaceOnUse">
<stop stop-color="#F15B2B"/>
<stop offset="0.281" stop-color="#F15B2B"/>
<stop offset="0.746" stop-color="#F6C224"/>
<stop offset="1" stop-color="#F7DF22"/>
</linearGradient>
<linearGradient id="paint13_linear_8822_16593" x1="285.084" y1="511.038" x2="306.427" y2="458.551" gradientUnits="userSpaceOnUse">
<stop stop-color="#F15B2B"/>
<stop offset="0.281" stop-color="#F15B2B"/>
<stop offset="0.746" stop-color="#F6C224"/>
<stop offset="1" stop-color="#F7DF22"/>
</linearGradient>
<linearGradient id="paint14_linear_8822_16593" x1="-28.5459" y1="511.038" x2="-7.20286" y2="458.551" gradientUnits="userSpaceOnUse">
<stop stop-color="#F15B2B"/>
<stop offset="0.281" stop-color="#F15B2B"/>
<stop offset="0.746" stop-color="#F6C224"/>
<stop offset="1" stop-color="#F7DF22"/>
</linearGradient>
<linearGradient id="paint15_linear_8822_16593" x1="128.723" y1="511.038" x2="150.066" y2="458.551" gradientUnits="userSpaceOnUse">
<stop stop-color="#F15B2B"/>
<stop offset="0.281" stop-color="#F15B2B"/>
<stop offset="0.746" stop-color="#F6C224"/>
<stop offset="1" stop-color="#F7DF22"/>
</linearGradient>
<linearGradient id="paint16_linear_8822_16593" x1="162.435" y1="46.1515" x2="183.778" y2="-6.33597" gradientUnits="userSpaceOnUse">
<stop stop-color="#F15B2B"/>
<stop offset="0.281" stop-color="#F15B2B"/>
<stop offset="0.746" stop-color="#F6C224"/>
<stop offset="1" stop-color="#F7DF22"/>
</linearGradient>
<linearGradient id="paint17_linear_8822_16593" x1="319.702" y1="46.1515" x2="341.045" y2="-6.33597" gradientUnits="userSpaceOnUse">
<stop stop-color="#F15B2B"/>
<stop offset="0.281" stop-color="#F15B2B"/>
<stop offset="0.746" stop-color="#F6C224"/>
<stop offset="1" stop-color="#F7DF22"/>
</linearGradient>
<linearGradient id="paint18_linear_8822_16593" x1="6.07227" y1="46.1515" x2="27.4153" y2="-6.33597" gradientUnits="userSpaceOnUse">
<stop stop-color="#F15B2B"/>
<stop offset="0.281" stop-color="#F15B2B"/>
<stop offset="0.746" stop-color="#F6C224"/>
<stop offset="1" stop-color="#F7DF22"/>
</linearGradient>
<linearGradient id="paint19_linear_8822_16593" x1="84.5557" y1="46.1515" x2="105.899" y2="-6.33597" gradientUnits="userSpaceOnUse">
<stop stop-color="#F15B2B"/>
<stop offset="0.281" stop-color="#F15B2B"/>
<stop offset="0.746" stop-color="#F6C224"/>
<stop offset="1" stop-color="#F7DF22"/>
</linearGradient>
<linearGradient id="paint20_linear_8822_16593" x1="241.823" y1="46.1515" x2="263.166" y2="-6.33597" gradientUnits="userSpaceOnUse">
<stop stop-color="#F15B2B"/>
<stop offset="0.281" stop-color="#F15B2B"/>
<stop offset="0.746" stop-color="#F6C224"/>
<stop offset="1" stop-color="#F7DF22"/>
</linearGradient>
<linearGradient id="paint21_linear_8822_16593" x1="-71.8076" y1="46.1515" x2="-50.4646" y2="-6.33597" gradientUnits="userSpaceOnUse">
<stop stop-color="#F15B2B"/>
<stop offset="0.281" stop-color="#F15B2B"/>
<stop offset="0.746" stop-color="#F6C224"/>
<stop offset="1" stop-color="#F7DF22"/>
</linearGradient>
<linearGradient id="paint22_linear_8822_16593" x1="71.9727" y1="418.06" x2="93.3157" y2="365.573" gradientUnits="userSpaceOnUse">
<stop stop-color="#F15B2B"/>
<stop offset="0.281" stop-color="#F15B2B"/>
<stop offset="0.746" stop-color="#F6C224"/>
<stop offset="1" stop-color="#F7DF22"/>
</linearGradient>
<linearGradient id="paint23_linear_8822_16593" x1="229.24" y1="418.06" x2="250.583" y2="365.573" gradientUnits="userSpaceOnUse">
<stop stop-color="#F15B2B"/>
<stop offset="0.281" stop-color="#F15B2B"/>
<stop offset="0.746" stop-color="#F6C224"/>
<stop offset="1" stop-color="#F7DF22"/>
</linearGradient>
<linearGradient id="paint24_linear_8822_16593" x1="307.724" y1="418.06" x2="329.067" y2="365.573" gradientUnits="userSpaceOnUse">
<stop stop-color="#F15B2B"/>
<stop offset="0.281" stop-color="#F15B2B"/>
<stop offset="0.746" stop-color="#F6C224"/>
<stop offset="1" stop-color="#F7DF22"/>
</linearGradient>
<linearGradient id="paint25_linear_8822_16593" x1="-5.90625" y1="418.06" x2="15.4368" y2="365.573" gradientUnits="userSpaceOnUse">
<stop stop-color="#F15B2B"/>
<stop offset="0.281" stop-color="#F15B2B"/>
<stop offset="0.746" stop-color="#F6C224"/>
<stop offset="1" stop-color="#F7DF22"/>
</linearGradient>
<linearGradient id="paint26_linear_8822_16593" x1="151.361" y1="418.06" x2="172.704" y2="365.573" gradientUnits="userSpaceOnUse">
<stop stop-color="#F15B2B"/>
<stop offset="0.281" stop-color="#F15B2B"/>
<stop offset="0.746" stop-color="#F6C224"/>
<stop offset="1" stop-color="#F7DF22"/>
</linearGradient>
<linearGradient id="paint27_linear_8822_16593" x1="117.155" y1="232.106" x2="138.498" y2="179.618" gradientUnits="userSpaceOnUse">
<stop stop-color="#F15B2B"/>
<stop offset="0.281" stop-color="#F15B2B"/>
<stop offset="0.746" stop-color="#F6C224"/>
<stop offset="1" stop-color="#F7DF22"/>
</linearGradient>
<linearGradient id="paint28_linear_8822_16593" x1="274.423" y1="232.106" x2="295.766" y2="179.618" gradientUnits="userSpaceOnUse">
<stop stop-color="#F15B2B"/>
<stop offset="0.281" stop-color="#F15B2B"/>
<stop offset="0.746" stop-color="#F6C224"/>
<stop offset="1" stop-color="#F7DF22"/>
</linearGradient>
<linearGradient id="paint29_linear_8822_16593" x1="-39.207" y1="232.106" x2="-17.864" y2="179.618" gradientUnits="userSpaceOnUse">
<stop stop-color="#F15B2B"/>
<stop offset="0.281" stop-color="#F15B2B"/>
<stop offset="0.746" stop-color="#F6C224"/>
<stop offset="1" stop-color="#F7DF22"/>
</linearGradient>
<linearGradient id="paint30_linear_8822_16593" x1="352.906" y1="232.106" x2="374.249" y2="179.618" gradientUnits="userSpaceOnUse">
<stop stop-color="#F15B2B"/>
<stop offset="0.281" stop-color="#F15B2B"/>
<stop offset="0.746" stop-color="#F6C224"/>
<stop offset="1" stop-color="#F7DF22"/>
</linearGradient>
<linearGradient id="paint31_linear_8822_16593" x1="39.2764" y1="232.106" x2="60.6194" y2="179.618" gradientUnits="userSpaceOnUse">
<stop stop-color="#F15B2B"/>
<stop offset="0.281" stop-color="#F15B2B"/>
<stop offset="0.746" stop-color="#F6C224"/>
<stop offset="1" stop-color="#F7DF22"/>
</linearGradient>
<linearGradient id="paint32_linear_8822_16593" x1="196.544" y1="232.106" x2="217.887" y2="179.618" gradientUnits="userSpaceOnUse">
<stop stop-color="#F15B2B"/>
<stop offset="0.281" stop-color="#F15B2B"/>
<stop offset="0.746" stop-color="#F6C224"/>
<stop offset="1" stop-color="#F7DF22"/>
</linearGradient>
<linearGradient id="paint33_linear_8822_16593" x1="340.324" y1="604.016" x2="361.667" y2="551.529" gradientUnits="userSpaceOnUse">
<stop stop-color="#F15B2B"/>
<stop offset="0.281" stop-color="#F15B2B"/>
<stop offset="0.746" stop-color="#F6C224"/>
<stop offset="1" stop-color="#F7DF22"/>
</linearGradient>
<linearGradient id="paint34_linear_8822_16593" x1="26.6943" y1="604.016" x2="48.0374" y2="551.529" gradientUnits="userSpaceOnUse">
<stop stop-color="#F15B2B"/>
<stop offset="0.281" stop-color="#F15B2B"/>
<stop offset="0.746" stop-color="#F6C224"/>
<stop offset="1" stop-color="#F7DF22"/>
</linearGradient>
<linearGradient id="paint35_linear_8822_16593" x1="183.962" y1="604.016" x2="205.305" y2="551.529" gradientUnits="userSpaceOnUse">
<stop stop-color="#F15B2B"/>
<stop offset="0.281" stop-color="#F15B2B"/>
<stop offset="0.746" stop-color="#F6C224"/>
<stop offset="1" stop-color="#F7DF22"/>
</linearGradient>
<linearGradient id="paint36_linear_8822_16593" x1="262.445" y1="604.016" x2="283.788" y2="551.529" gradientUnits="userSpaceOnUse">
<stop stop-color="#F15B2B"/>
<stop offset="0.281" stop-color="#F15B2B"/>
<stop offset="0.746" stop-color="#F6C224"/>
<stop offset="1" stop-color="#F7DF22"/>
</linearGradient>
<linearGradient id="paint37_linear_8822_16593" x1="-51.1846" y1="604.016" x2="-29.8415" y2="551.529" gradientUnits="userSpaceOnUse">
<stop stop-color="#F15B2B"/>
<stop offset="0.281" stop-color="#F15B2B"/>
<stop offset="0.746" stop-color="#F6C224"/>
<stop offset="1" stop-color="#F7DF22"/>
</linearGradient>
<linearGradient id="paint38_linear_8822_16593" x1="106.083" y1="604.016" x2="127.426" y2="551.529" gradientUnits="userSpaceOnUse">
<stop stop-color="#F15B2B"/>
<stop offset="0.281" stop-color="#F15B2B"/>
<stop offset="0.746" stop-color="#F6C224"/>
<stop offset="1" stop-color="#F7DF22"/>
</linearGradient>
<linearGradient id="paint39_linear_8822_16593" x1="87.0654" y1="356.075" x2="108.408" y2="303.588" gradientUnits="userSpaceOnUse">
<stop stop-color="#F15B2B"/>
<stop offset="0.281" stop-color="#F15B2B"/>
<stop offset="0.746" stop-color="#F6C224"/>
<stop offset="1" stop-color="#F7DF22"/>
</linearGradient>
<linearGradient id="paint40_linear_8822_16593" x1="244.333" y1="356.075" x2="265.676" y2="303.588" gradientUnits="userSpaceOnUse">
<stop stop-color="#F15B2B"/>
<stop offset="0.281" stop-color="#F15B2B"/>
<stop offset="0.746" stop-color="#F6C224"/>
<stop offset="1" stop-color="#F7DF22"/>
</linearGradient>
<linearGradient id="paint41_linear_8822_16593" x1="-69.2969" y1="356.075" x2="-47.9538" y2="303.588" gradientUnits="userSpaceOnUse">
<stop stop-color="#F15B2B"/>
<stop offset="0.281" stop-color="#F15B2B"/>
<stop offset="0.746" stop-color="#F6C224"/>
<stop offset="1" stop-color="#F7DF22"/>
</linearGradient>
<linearGradient id="paint42_linear_8822_16593" x1="322.816" y1="356.075" x2="344.159" y2="303.588" gradientUnits="userSpaceOnUse">
<stop stop-color="#F15B2B"/>
<stop offset="0.281" stop-color="#F15B2B"/>
<stop offset="0.746" stop-color="#F6C224"/>
<stop offset="1" stop-color="#F7DF22"/>
</linearGradient>
<linearGradient id="paint43_linear_8822_16593" x1="9.18652" y1="356.075" x2="30.5296" y2="303.588" gradientUnits="userSpaceOnUse">
<stop stop-color="#F15B2B"/>
<stop offset="0.281" stop-color="#F15B2B"/>
<stop offset="0.746" stop-color="#F6C224"/>
<stop offset="1" stop-color="#F7DF22"/>
</linearGradient>
<linearGradient id="paint44_linear_8822_16593" x1="166.454" y1="356.075" x2="187.797" y2="303.588" gradientUnits="userSpaceOnUse">
<stop stop-color="#F15B2B"/>
<stop offset="0.281" stop-color="#F15B2B"/>
<stop offset="0.746" stop-color="#F6C224"/>
<stop offset="1" stop-color="#F7DF22"/>
</linearGradient>
<linearGradient id="paint45_linear_8822_16593" x1="132.248" y1="170.121" x2="153.591" y2="117.633" gradientUnits="userSpaceOnUse">
<stop stop-color="#F15B2B"/>
<stop offset="0.281" stop-color="#F15B2B"/>
<stop offset="0.746" stop-color="#F6C224"/>
<stop offset="1" stop-color="#F7DF22"/>
</linearGradient>
<linearGradient id="paint46_linear_8822_16593" x1="289.517" y1="170.121" x2="310.86" y2="117.633" gradientUnits="userSpaceOnUse">
<stop stop-color="#F15B2B"/>
<stop offset="0.281" stop-color="#F15B2B"/>
<stop offset="0.746" stop-color="#F6C224"/>
<stop offset="1" stop-color="#F7DF22"/>
</linearGradient>
<linearGradient id="paint47_linear_8822_16593" x1="-24.1133" y1="170.121" x2="-2.77024" y2="117.633" gradientUnits="userSpaceOnUse">
<stop stop-color="#F15B2B"/>
<stop offset="0.281" stop-color="#F15B2B"/>
<stop offset="0.746" stop-color="#F6C224"/>
<stop offset="1" stop-color="#F7DF22"/>
</linearGradient>
<linearGradient id="paint48_linear_8822_16593" x1="54.3691" y1="170.121" x2="75.7122" y2="117.633" gradientUnits="userSpaceOnUse">
<stop stop-color="#F15B2B"/>
<stop offset="0.281" stop-color="#F15B2B"/>
<stop offset="0.746" stop-color="#F6C224"/>
<stop offset="1" stop-color="#F7DF22"/>
</linearGradient>
<linearGradient id="paint49_linear_8822_16593" x1="211.638" y1="170.121" x2="232.981" y2="117.633" gradientUnits="userSpaceOnUse">
<stop stop-color="#F15B2B"/>
<stop offset="0.281" stop-color="#F15B2B"/>
<stop offset="0.746" stop-color="#F6C224"/>
<stop offset="1" stop-color="#F7DF22"/>
</linearGradient>
<linearGradient id="paint50_linear_8822_16593" x1="355.416" y1="542.031" x2="376.759" y2="489.543" gradientUnits="userSpaceOnUse">
<stop stop-color="#F15B2B"/>
<stop offset="0.281" stop-color="#F15B2B"/>
<stop offset="0.746" stop-color="#F6C224"/>
<stop offset="1" stop-color="#F7DF22"/>
</linearGradient>
<linearGradient id="paint51_linear_8822_16593" x1="41.7861" y1="542.031" x2="63.1292" y2="489.543" gradientUnits="userSpaceOnUse">
<stop stop-color="#F15B2B"/>
<stop offset="0.281" stop-color="#F15B2B"/>
<stop offset="0.746" stop-color="#F6C224"/>
<stop offset="1" stop-color="#F7DF22"/>
</linearGradient>
<linearGradient id="paint52_linear_8822_16593" x1="199.055" y1="542.031" x2="220.398" y2="489.543" gradientUnits="userSpaceOnUse">
<stop stop-color="#F15B2B"/>
<stop offset="0.281" stop-color="#F15B2B"/>
<stop offset="0.746" stop-color="#F6C224"/>
<stop offset="1" stop-color="#F7DF22"/>
</linearGradient>
<linearGradient id="paint53_linear_8822_16593" x1="277.537" y1="542.031" x2="298.88" y2="489.543" gradientUnits="userSpaceOnUse">
<stop stop-color="#F15B2B"/>
<stop offset="0.281" stop-color="#F15B2B"/>
<stop offset="0.746" stop-color="#F6C224"/>
<stop offset="1" stop-color="#F7DF22"/>
</linearGradient>
<linearGradient id="paint54_linear_8822_16593" x1="-36.0928" y1="542.031" x2="-14.7497" y2="489.543" gradientUnits="userSpaceOnUse">
<stop stop-color="#F15B2B"/>
<stop offset="0.281" stop-color="#F15B2B"/>
<stop offset="0.746" stop-color="#F6C224"/>
<stop offset="1" stop-color="#F7DF22"/>
</linearGradient>
<linearGradient id="paint55_linear_8822_16593" x1="121.176" y1="542.031" x2="142.519" y2="489.543" gradientUnits="userSpaceOnUse">
<stop stop-color="#F15B2B"/>
<stop offset="0.281" stop-color="#F15B2B"/>
<stop offset="0.746" stop-color="#F6C224"/>
<stop offset="1" stop-color="#F7DF22"/>
</linearGradient>
<linearGradient id="paint56_linear_8822_16593" x1="154.889" y1="77.1437" x2="176.232" y2="24.6562" gradientUnits="userSpaceOnUse">
<stop stop-color="#F15B2B"/>
<stop offset="0.281" stop-color="#F15B2B"/>
<stop offset="0.746" stop-color="#F6C224"/>
<stop offset="1" stop-color="#F7DF22"/>
</linearGradient>
<linearGradient id="paint57_linear_8822_16593" x1="312.156" y1="77.1437" x2="333.499" y2="24.6562" gradientUnits="userSpaceOnUse">
<stop stop-color="#F15B2B"/>
<stop offset="0.281" stop-color="#F15B2B"/>
<stop offset="0.746" stop-color="#F6C224"/>
<stop offset="1" stop-color="#F7DF22"/>
</linearGradient>
<linearGradient id="paint58_linear_8822_16593" x1="-1.47363" y1="77.1437" x2="19.8694" y2="24.6562" gradientUnits="userSpaceOnUse">
<stop stop-color="#F15B2B"/>
<stop offset="0.281" stop-color="#F15B2B"/>
<stop offset="0.746" stop-color="#F6C224"/>
<stop offset="1" stop-color="#F7DF22"/>
</linearGradient>
<linearGradient id="paint59_linear_8822_16593" x1="77.0098" y1="77.1437" x2="98.3528" y2="24.6562" gradientUnits="userSpaceOnUse">
<stop stop-color="#F15B2B"/>
<stop offset="0.281" stop-color="#F15B2B"/>
<stop offset="0.746" stop-color="#F6C224"/>
<stop offset="1" stop-color="#F7DF22"/>
</linearGradient>
<linearGradient id="paint60_linear_8822_16593" x1="234.277" y1="77.1437" x2="255.62" y2="24.6562" gradientUnits="userSpaceOnUse">
<stop stop-color="#F15B2B"/>
<stop offset="0.281" stop-color="#F15B2B"/>
<stop offset="0.746" stop-color="#F6C224"/>
<stop offset="1" stop-color="#F7DF22"/>
</linearGradient>
<linearGradient id="paint61_linear_8822_16593" x1="-79.3535" y1="77.1437" x2="-58.0105" y2="24.6562" gradientUnits="userSpaceOnUse">
<stop stop-color="#F15B2B"/>
<stop offset="0.281" stop-color="#F15B2B"/>
<stop offset="0.746" stop-color="#F6C224"/>
<stop offset="1" stop-color="#F7DF22"/>
</linearGradient>
<linearGradient id="paint62_linear_8822_16593" x1="64.4268" y1="449.053" x2="85.7698" y2="396.565" gradientUnits="userSpaceOnUse">
<stop stop-color="#F15B2B"/>
<stop offset="0.281" stop-color="#F15B2B"/>
<stop offset="0.746" stop-color="#F6C224"/>
<stop offset="1" stop-color="#F7DF22"/>
</linearGradient>
<linearGradient id="paint63_linear_8822_16593" x1="221.694" y1="449.053" x2="243.037" y2="396.565" gradientUnits="userSpaceOnUse">
<stop stop-color="#F15B2B"/>
<stop offset="0.281" stop-color="#F15B2B"/>
<stop offset="0.746" stop-color="#F6C224"/>
<stop offset="1" stop-color="#F7DF22"/>
</linearGradient>
<linearGradient id="paint64_linear_8822_16593" x1="300.178" y1="449.053" x2="321.521" y2="396.565" gradientUnits="userSpaceOnUse">
<stop stop-color="#F15B2B"/>
<stop offset="0.281" stop-color="#F15B2B"/>
<stop offset="0.746" stop-color="#F6C224"/>
<stop offset="1" stop-color="#F7DF22"/>
</linearGradient>
<linearGradient id="paint65_linear_8822_16593" x1="-13.4521" y1="449.053" x2="7.89089" y2="396.565" gradientUnits="userSpaceOnUse">
<stop stop-color="#F15B2B"/>
<stop offset="0.281" stop-color="#F15B2B"/>
<stop offset="0.746" stop-color="#F6C224"/>
<stop offset="1" stop-color="#F7DF22"/>
</linearGradient>
<linearGradient id="paint66_linear_8822_16593" x1="143.815" y1="449.053" x2="165.158" y2="396.565" gradientUnits="userSpaceOnUse">
<stop stop-color="#F15B2B"/>
<stop offset="0.281" stop-color="#F15B2B"/>
<stop offset="0.746" stop-color="#F6C224"/>
<stop offset="1" stop-color="#F7DF22"/>
</linearGradient>
<linearGradient id="paint67_linear_8822_16593" x1="109.609" y1="263.098" x2="130.952" y2="210.611" gradientUnits="userSpaceOnUse">
<stop stop-color="#F15B2B"/>
<stop offset="0.281" stop-color="#F15B2B"/>
<stop offset="0.746" stop-color="#F6C224"/>
<stop offset="1" stop-color="#F7DF22"/>
</linearGradient>
<linearGradient id="paint68_linear_8822_16593" x1="266.877" y1="263.098" x2="288.22" y2="210.611" gradientUnits="userSpaceOnUse">
<stop stop-color="#F15B2B"/>
<stop offset="0.281" stop-color="#F15B2B"/>
<stop offset="0.746" stop-color="#F6C224"/>
<stop offset="1" stop-color="#F7DF22"/>
</linearGradient>
<linearGradient id="paint69_linear_8822_16593" x1="-46.7529" y1="263.098" x2="-25.4099" y2="210.611" gradientUnits="userSpaceOnUse">
<stop stop-color="#F15B2B"/>
<stop offset="0.281" stop-color="#F15B2B"/>
<stop offset="0.746" stop-color="#F6C224"/>
<stop offset="1" stop-color="#F7DF22"/>
</linearGradient>
<linearGradient id="paint70_linear_8822_16593" x1="345.36" y1="263.098" x2="366.703" y2="210.611" gradientUnits="userSpaceOnUse">
<stop stop-color="#F15B2B"/>
<stop offset="0.281" stop-color="#F15B2B"/>
<stop offset="0.746" stop-color="#F6C224"/>
<stop offset="1" stop-color="#F7DF22"/>
</linearGradient>
<linearGradient id="paint71_linear_8822_16593" x1="31.7305" y1="263.098" x2="53.0735" y2="210.611" gradientUnits="userSpaceOnUse">
<stop stop-color="#F15B2B"/>
<stop offset="0.281" stop-color="#F15B2B"/>
<stop offset="0.746" stop-color="#F6C224"/>
<stop offset="1" stop-color="#F7DF22"/>
</linearGradient>
<linearGradient id="paint72_linear_8822_16593" x1="188.998" y1="263.098" x2="210.341" y2="210.611" gradientUnits="userSpaceOnUse">
<stop stop-color="#F15B2B"/>
<stop offset="0.281" stop-color="#F15B2B"/>
<stop offset="0.746" stop-color="#F6C224"/>
<stop offset="1" stop-color="#F7DF22"/>
</linearGradient>
<linearGradient id="paint73_linear_8822_16593" x1="332.777" y1="635.007" x2="354.12" y2="582.52" gradientUnits="userSpaceOnUse">
<stop stop-color="#F15B2B"/>
<stop offset="0.281" stop-color="#F15B2B"/>
<stop offset="0.746" stop-color="#F6C224"/>
<stop offset="1" stop-color="#F7DF22"/>
</linearGradient>
<linearGradient id="paint74_linear_8822_16593" x1="19.1475" y1="635.007" x2="40.4905" y2="582.52" gradientUnits="userSpaceOnUse">
<stop stop-color="#F15B2B"/>
<stop offset="0.281" stop-color="#F15B2B"/>
<stop offset="0.746" stop-color="#F6C224"/>
<stop offset="1" stop-color="#F7DF22"/>
</linearGradient>
<linearGradient id="paint75_linear_8822_16593" x1="176.415" y1="635.007" x2="197.758" y2="582.52" gradientUnits="userSpaceOnUse">
<stop stop-color="#F15B2B"/>
<stop offset="0.281" stop-color="#F15B2B"/>
<stop offset="0.746" stop-color="#F6C224"/>
<stop offset="1" stop-color="#F7DF22"/>
</linearGradient>
<linearGradient id="paint76_linear_8822_16593" x1="254.898" y1="635.007" x2="276.241" y2="582.52" gradientUnits="userSpaceOnUse">
<stop stop-color="#F15B2B"/>
<stop offset="0.281" stop-color="#F15B2B"/>
<stop offset="0.746" stop-color="#F6C224"/>
<stop offset="1" stop-color="#F7DF22"/>
</linearGradient>
<linearGradient id="paint77_linear_8822_16593" x1="-58.7314" y1="635.007" x2="-37.3884" y2="582.52" gradientUnits="userSpaceOnUse">
<stop stop-color="#F15B2B"/>
<stop offset="0.281" stop-color="#F15B2B"/>
<stop offset="0.746" stop-color="#F6C224"/>
<stop offset="1" stop-color="#F7DF22"/>
</linearGradient>
<linearGradient id="paint78_linear_8822_16593" x1="98.5361" y1="635.007" x2="119.879" y2="582.52" gradientUnits="userSpaceOnUse">
<stop stop-color="#F15B2B"/>
<stop offset="0.281" stop-color="#F15B2B"/>
<stop offset="0.746" stop-color="#F6C224"/>
<stop offset="1" stop-color="#F7DF22"/>
</linearGradient>
<linearGradient id="paint79_linear_8822_16593" x1="169.981" y1="15.1589" x2="191.324" y2="-37.3286" gradientUnits="userSpaceOnUse">
<stop stop-color="#F15B2B"/>
<stop offset="0.281" stop-color="#F15B2B"/>
<stop offset="0.746" stop-color="#F6C224"/>
<stop offset="1" stop-color="#F7DF22"/>
</linearGradient>
<linearGradient id="paint80_linear_8822_16593" x1="327.249" y1="15.1589" x2="348.592" y2="-37.3286" gradientUnits="userSpaceOnUse">
<stop stop-color="#F15B2B"/>
<stop offset="0.281" stop-color="#F15B2B"/>
<stop offset="0.746" stop-color="#F6C224"/>
<stop offset="1" stop-color="#F7DF22"/>
</linearGradient>
<linearGradient id="paint81_linear_8822_16593" x1="13.6191" y1="15.1589" x2="34.9622" y2="-37.3286" gradientUnits="userSpaceOnUse">
<stop stop-color="#F15B2B"/>
<stop offset="0.281" stop-color="#F15B2B"/>
<stop offset="0.746" stop-color="#F6C224"/>
<stop offset="1" stop-color="#F7DF22"/>
</linearGradient>
<linearGradient id="paint82_linear_8822_16593" x1="92.1025" y1="15.1589" x2="113.446" y2="-37.3286" gradientUnits="userSpaceOnUse">
<stop stop-color="#F15B2B"/>
<stop offset="0.281" stop-color="#F15B2B"/>
<stop offset="0.746" stop-color="#F6C224"/>
<stop offset="1" stop-color="#F7DF22"/>
</linearGradient>
<linearGradient id="paint83_linear_8822_16593" x1="249.37" y1="15.1589" x2="270.713" y2="-37.3286" gradientUnits="userSpaceOnUse">
<stop stop-color="#F15B2B"/>
<stop offset="0.281" stop-color="#F15B2B"/>
<stop offset="0.746" stop-color="#F6C224"/>
<stop offset="1" stop-color="#F7DF22"/>
</linearGradient>
<linearGradient id="paint84_linear_8822_16593" x1="-64.2607" y1="15.1589" x2="-42.9177" y2="-37.3286" gradientUnits="userSpaceOnUse">
<stop stop-color="#F15B2B"/>
<stop offset="0.281" stop-color="#F15B2B"/>
<stop offset="0.746" stop-color="#F6C224"/>
<stop offset="1" stop-color="#F7DF22"/>
</linearGradient>
<linearGradient id="paint85_linear_8822_16593" x1="79.5195" y1="387.068" x2="100.863" y2="334.58" gradientUnits="userSpaceOnUse">
<stop stop-color="#F15B2B"/>
<stop offset="0.281" stop-color="#F15B2B"/>
<stop offset="0.746" stop-color="#F6C224"/>
<stop offset="1" stop-color="#F7DF22"/>
</linearGradient>
<linearGradient id="paint86_linear_8822_16593" x1="236.787" y1="387.067" x2="258.13" y2="334.58" gradientUnits="userSpaceOnUse">
<stop stop-color="#F15B2B"/>
<stop offset="0.281" stop-color="#F15B2B"/>
<stop offset="0.746" stop-color="#F6C224"/>
<stop offset="1" stop-color="#F7DF22"/>
</linearGradient>
<linearGradient id="paint87_linear_8822_16593" x1="-76.8428" y1="387.068" x2="-55.4997" y2="334.58" gradientUnits="userSpaceOnUse">
<stop stop-color="#F15B2B"/>
<stop offset="0.281" stop-color="#F15B2B"/>
<stop offset="0.746" stop-color="#F6C224"/>
<stop offset="1" stop-color="#F7DF22"/>
</linearGradient>
<linearGradient id="paint88_linear_8822_16593" x1="315.271" y1="387.068" x2="336.614" y2="334.58" gradientUnits="userSpaceOnUse">
<stop stop-color="#F15B2B"/>
<stop offset="0.281" stop-color="#F15B2B"/>
<stop offset="0.746" stop-color="#F6C224"/>
<stop offset="1" stop-color="#F7DF22"/>
</linearGradient>
<linearGradient id="paint89_linear_8822_16593" x1="1.64063" y1="387.067" x2="22.9837" y2="334.58" gradientUnits="userSpaceOnUse">
<stop stop-color="#F15B2B"/>
<stop offset="0.281" stop-color="#F15B2B"/>
<stop offset="0.746" stop-color="#F6C224"/>
<stop offset="1" stop-color="#F7DF22"/>
</linearGradient>
<linearGradient id="paint90_linear_8822_16593" x1="158.908" y1="387.068" x2="180.251" y2="334.58" gradientUnits="userSpaceOnUse">
<stop stop-color="#F15B2B"/>
<stop offset="0.281" stop-color="#F15B2B"/>
<stop offset="0.746" stop-color="#F6C224"/>
<stop offset="1" stop-color="#F7DF22"/>
</linearGradient>
<linearGradient id="paint91_linear_8822_16593" x1="124.702" y1="201.113" x2="146.045" y2="148.626" gradientUnits="userSpaceOnUse">
<stop stop-color="#F15B2B"/>
<stop offset="0.281" stop-color="#F15B2B"/>
<stop offset="0.746" stop-color="#F6C224"/>
<stop offset="1" stop-color="#F7DF22"/>
</linearGradient>
<linearGradient id="paint92_linear_8822_16593" x1="281.971" y1="201.113" x2="303.314" y2="148.626" gradientUnits="userSpaceOnUse">
<stop stop-color="#F15B2B"/>
<stop offset="0.281" stop-color="#F15B2B"/>
<stop offset="0.746" stop-color="#F6C224"/>
<stop offset="1" stop-color="#F7DF22"/>
</linearGradient>
<linearGradient id="paint93_linear_8822_16593" x1="-31.6592" y1="201.113" x2="-10.3161" y2="148.626" gradientUnits="userSpaceOnUse">
<stop stop-color="#F15B2B"/>
<stop offset="0.281" stop-color="#F15B2B"/>
<stop offset="0.746" stop-color="#F6C224"/>
<stop offset="1" stop-color="#F7DF22"/>
</linearGradient>
<linearGradient id="paint94_linear_8822_16593" x1="46.8232" y1="201.113" x2="68.1663" y2="148.626" gradientUnits="userSpaceOnUse">
<stop stop-color="#F15B2B"/>
<stop offset="0.281" stop-color="#F15B2B"/>
<stop offset="0.746" stop-color="#F6C224"/>
<stop offset="1" stop-color="#F7DF22"/>
</linearGradient>
<linearGradient id="paint95_linear_8822_16593" x1="204.092" y1="201.113" x2="225.435" y2="148.626" gradientUnits="userSpaceOnUse">
<stop stop-color="#F15B2B"/>
<stop offset="0.281" stop-color="#F15B2B"/>
<stop offset="0.746" stop-color="#F6C224"/>
<stop offset="1" stop-color="#F7DF22"/>
</linearGradient>
<linearGradient id="paint96_linear_8822_16593" x1="347.87" y1="573.023" x2="369.213" y2="520.536" gradientUnits="userSpaceOnUse">
<stop stop-color="#F15B2B"/>
<stop offset="0.281" stop-color="#F15B2B"/>
<stop offset="0.746" stop-color="#F6C224"/>
<stop offset="1" stop-color="#F7DF22"/>
</linearGradient>
<linearGradient id="paint97_linear_8822_16593" x1="34.2402" y1="573.023" x2="55.5833" y2="520.536" gradientUnits="userSpaceOnUse">
<stop stop-color="#F15B2B"/>
<stop offset="0.281" stop-color="#F15B2B"/>
<stop offset="0.746" stop-color="#F6C224"/>
<stop offset="1" stop-color="#F7DF22"/>
</linearGradient>
<linearGradient id="paint98_linear_8822_16593" x1="191.508" y1="573.023" x2="212.851" y2="520.536" gradientUnits="userSpaceOnUse">
<stop stop-color="#F15B2B"/>
<stop offset="0.281" stop-color="#F15B2B"/>
<stop offset="0.746" stop-color="#F6C224"/>
<stop offset="1" stop-color="#F7DF22"/>
</linearGradient>
<linearGradient id="paint99_linear_8822_16593" x1="269.991" y1="573.023" x2="291.334" y2="520.536" gradientUnits="userSpaceOnUse">
<stop stop-color="#F15B2B"/>
<stop offset="0.281" stop-color="#F15B2B"/>
<stop offset="0.746" stop-color="#F6C224"/>
<stop offset="1" stop-color="#F7DF22"/>
</linearGradient>
<linearGradient id="paint100_linear_8822_16593" x1="-43.6387" y1="573.023" x2="-22.2956" y2="520.536" gradientUnits="userSpaceOnUse">
<stop stop-color="#F15B2B"/>
<stop offset="0.281" stop-color="#F15B2B"/>
<stop offset="0.746" stop-color="#F6C224"/>
<stop offset="1" stop-color="#F7DF22"/>
</linearGradient>
<linearGradient id="paint101_linear_8822_16593" x1="113.629" y1="573.023" x2="134.972" y2="520.536" gradientUnits="userSpaceOnUse">
<stop stop-color="#F15B2B"/>
<stop offset="0.281" stop-color="#F15B2B"/>
<stop offset="0.746" stop-color="#F6C224"/>
<stop offset="1" stop-color="#F7DF22"/>
</linearGradient>
<linearGradient id="paint102_linear_8822_16593" x1="147.343" y1="108.135" x2="168.686" y2="55.6479" gradientUnits="userSpaceOnUse">
<stop stop-color="#F15B2B"/>
<stop offset="0.281" stop-color="#F15B2B"/>
<stop offset="0.746" stop-color="#F6C224"/>
<stop offset="1" stop-color="#F7DF22"/>
</linearGradient>
<linearGradient id="paint103_linear_8822_16593" x1="304.61" y1="108.135" x2="325.953" y2="55.6479" gradientUnits="userSpaceOnUse">
<stop stop-color="#F15B2B"/>
<stop offset="0.281" stop-color="#F15B2B"/>
<stop offset="0.746" stop-color="#F6C224"/>
<stop offset="1" stop-color="#F7DF22"/>
</linearGradient>
<linearGradient id="paint104_linear_8822_16593" x1="-9.01953" y1="108.135" x2="12.3235" y2="55.6479" gradientUnits="userSpaceOnUse">
<stop stop-color="#F15B2B"/>
<stop offset="0.281" stop-color="#F15B2B"/>
<stop offset="0.746" stop-color="#F6C224"/>
<stop offset="1" stop-color="#F7DF22"/>
</linearGradient>
<linearGradient id="paint105_linear_8822_16593" x1="69.4639" y1="108.135" x2="90.8069" y2="55.6479" gradientUnits="userSpaceOnUse">
<stop stop-color="#F15B2B"/>
<stop offset="0.281" stop-color="#F15B2B"/>
<stop offset="0.746" stop-color="#F6C224"/>
<stop offset="1" stop-color="#F7DF22"/>
</linearGradient>
<linearGradient id="paint106_linear_8822_16593" x1="226.731" y1="108.135" x2="248.074" y2="55.6479" gradientUnits="userSpaceOnUse">
<stop stop-color="#F15B2B"/>
<stop offset="0.281" stop-color="#F15B2B"/>
<stop offset="0.746" stop-color="#F6C224"/>
<stop offset="1" stop-color="#F7DF22"/>
</linearGradient>
<linearGradient id="paint107_linear_8822_16593" x1="56.8809" y1="480.046" x2="78.2239" y2="427.558" gradientUnits="userSpaceOnUse">
<stop stop-color="#F15B2B"/>
<stop offset="0.281" stop-color="#F15B2B"/>
<stop offset="0.746" stop-color="#F6C224"/>
<stop offset="1" stop-color="#F7DF22"/>
</linearGradient>
<linearGradient id="paint108_linear_8822_16593" x1="214.148" y1="480.046" x2="235.491" y2="427.558" gradientUnits="userSpaceOnUse">
<stop stop-color="#F15B2B"/>
<stop offset="0.281" stop-color="#F15B2B"/>
<stop offset="0.746" stop-color="#F6C224"/>
<stop offset="1" stop-color="#F7DF22"/>
</linearGradient>
<linearGradient id="paint109_linear_8822_16593" x1="292.632" y1="480.046" x2="313.975" y2="427.558" gradientUnits="userSpaceOnUse">
<stop stop-color="#F15B2B"/>
<stop offset="0.281" stop-color="#F15B2B"/>
<stop offset="0.746" stop-color="#F6C224"/>
<stop offset="1" stop-color="#F7DF22"/>
</linearGradient>
<linearGradient id="paint110_linear_8822_16593" x1="-20.998" y1="480.046" x2="0.344996" y2="427.558" gradientUnits="userSpaceOnUse">
<stop stop-color="#F15B2B"/>
<stop offset="0.281" stop-color="#F15B2B"/>
<stop offset="0.746" stop-color="#F6C224"/>
<stop offset="1" stop-color="#F7DF22"/>
</linearGradient>
<linearGradient id="paint111_linear_8822_16593" x1="136.27" y1="480.046" x2="157.613" y2="427.558" gradientUnits="userSpaceOnUse">
<stop stop-color="#F15B2B"/>
<stop offset="0.281" stop-color="#F15B2B"/>
<stop offset="0.746" stop-color="#F6C224"/>
<stop offset="1" stop-color="#F7DF22"/>
</linearGradient>
<linearGradient id="paint112_linear_8822_16593" x1="102.063" y1="294.091" x2="123.407" y2="241.603" gradientUnits="userSpaceOnUse">
<stop stop-color="#F15B2B"/>
<stop offset="0.281" stop-color="#F15B2B"/>
<stop offset="0.746" stop-color="#F6C224"/>
<stop offset="1" stop-color="#F7DF22"/>
</linearGradient>
<linearGradient id="paint113_linear_8822_16593" x1="259.331" y1="294.091" x2="280.674" y2="241.603" gradientUnits="userSpaceOnUse">
<stop stop-color="#F15B2B"/>
<stop offset="0.281" stop-color="#F15B2B"/>
<stop offset="0.746" stop-color="#F6C224"/>
<stop offset="1" stop-color="#F7DF22"/>
</linearGradient>
<linearGradient id="paint114_linear_8822_16593" x1="-54.2988" y1="294.091" x2="-32.9558" y2="241.603" gradientUnits="userSpaceOnUse">
<stop stop-color="#F15B2B"/>
<stop offset="0.281" stop-color="#F15B2B"/>
<stop offset="0.746" stop-color="#F6C224"/>
<stop offset="1" stop-color="#F7DF22"/>
</linearGradient>
<linearGradient id="paint115_linear_8822_16593" x1="337.814" y1="294.091" x2="359.157" y2="241.603" gradientUnits="userSpaceOnUse">
<stop stop-color="#F15B2B"/>
<stop offset="0.281" stop-color="#F15B2B"/>
<stop offset="0.746" stop-color="#F6C224"/>
<stop offset="1" stop-color="#F7DF22"/>
</linearGradient>
<linearGradient id="paint116_linear_8822_16593" x1="24.1846" y1="294.091" x2="45.5276" y2="241.603" gradientUnits="userSpaceOnUse">
<stop stop-color="#F15B2B"/>
<stop offset="0.281" stop-color="#F15B2B"/>
<stop offset="0.746" stop-color="#F6C224"/>
<stop offset="1" stop-color="#F7DF22"/>
</linearGradient>
<linearGradient id="paint117_linear_8822_16593" x1="181.452" y1="294.091" x2="202.795" y2="241.603" gradientUnits="userSpaceOnUse">
<stop stop-color="#F15B2B"/>
<stop offset="0.281" stop-color="#F15B2B"/>
<stop offset="0.746" stop-color="#F6C224"/>
<stop offset="1" stop-color="#F7DF22"/>
</linearGradient>
<linearGradient id="paint118_linear_8822_16593" x1="325.231" y1="666" x2="346.574" y2="613.512" gradientUnits="userSpaceOnUse">
<stop stop-color="#F15B2B"/>
<stop offset="0.281" stop-color="#F15B2B"/>
<stop offset="0.746" stop-color="#F6C224"/>
<stop offset="1" stop-color="#F7DF22"/>
</linearGradient>
<linearGradient id="paint119_linear_8822_16593" x1="11.6016" y1="666" x2="32.9446" y2="613.512" gradientUnits="userSpaceOnUse">
<stop stop-color="#F15B2B"/>
<stop offset="0.281" stop-color="#F15B2B"/>
<stop offset="0.746" stop-color="#F6C224"/>
<stop offset="1" stop-color="#F7DF22"/>
</linearGradient>
<linearGradient id="paint120_linear_8822_16593" x1="168.869" y1="666" x2="190.212" y2="613.512" gradientUnits="userSpaceOnUse">
<stop stop-color="#F15B2B"/>
<stop offset="0.281" stop-color="#F15B2B"/>
<stop offset="0.746" stop-color="#F6C224"/>
<stop offset="1" stop-color="#F7DF22"/>
</linearGradient>
<linearGradient id="paint121_linear_8822_16593" x1="247.353" y1="666" x2="268.696" y2="613.512" gradientUnits="userSpaceOnUse">
<stop stop-color="#F15B2B"/>
<stop offset="0.281" stop-color="#F15B2B"/>
<stop offset="0.746" stop-color="#F6C224"/>
<stop offset="1" stop-color="#F7DF22"/>
</linearGradient>
<linearGradient id="paint122_linear_8822_16593" x1="-66.2773" y1="666" x2="-44.9343" y2="613.512" gradientUnits="userSpaceOnUse">
<stop stop-color="#F15B2B"/>
<stop offset="0.281" stop-color="#F15B2B"/>
<stop offset="0.746" stop-color="#F6C224"/>
<stop offset="1" stop-color="#F7DF22"/>
</linearGradient>
<linearGradient id="paint123_linear_8822_16593" x1="90.9902" y1="666" x2="112.333" y2="613.512" gradientUnits="userSpaceOnUse">
<stop stop-color="#F15B2B"/>
<stop offset="0.281" stop-color="#F15B2B"/>
<stop offset="0.746" stop-color="#F6C224"/>
<stop offset="1" stop-color="#F7DF22"/>
</linearGradient>
<linearGradient id="paint124_linear_8822_16593" x1="216.72" y1="759.552" x2="219.997" y2="0.0110361" gradientUnits="userSpaceOnUse">
<stop stop-color="white"/>
<stop offset="0.847" stop-color="white"/>
<stop offset="1" stop-color="white" stop-opacity="0"/>
</linearGradient>
<linearGradient id="paint125_linear_8822_16593" x1="180" y1="0" x2="180" y2="850.944" gradientUnits="userSpaceOnUse">
<stop stop-color="white" stop-opacity="0.102"/>
<stop offset="0.19" stop-color="white" stop-opacity="0"/>
<stop offset="0.81" stop-color="white"/>
<stop offset="1" stop-color="#88C1EB"/>
</linearGradient>
</defs>
</svg>
