<svg xmlns="http://www.w3.org/2000/svg" width="40" height="40" viewBox="0 0 40 40"><defs><style>.a{fill:#548bb6;}.b{fill:#fff;}</style></defs><g transform="translate(7319 3352)"><rect class="a" width="40" height="40" rx="4" transform="translate(-7319 -3352)"/><path class="b" d="M10.083,7.563A2.522,2.522,0,0,0,7.563,5.042,2.522,2.522,0,0,0,5.042,7.563a2.522,2.522,0,0,0,2.521,2.521,2.522,2.522,0,0,0,2.521-2.521Zm1.359,0a3.866,3.866,0,0,1-3.88,3.88,3.866,3.866,0,0,1-3.88-3.88,3.866,3.866,0,0,1,3.88-3.88,3.866,3.866,0,0,1,3.88,3.88Zm1.063-4.037a.906.906,0,1,1-1.546-.64.906.906,0,0,1,1.546.64ZM7.563,1.359l-.753-.005q-.684-.005-1.039,0t-.95.029a7.765,7.765,0,0,0-1.014.1,3.913,3.913,0,0,0-.7.183A2.575,2.575,0,0,0,1.664,3.1a3.952,3.952,0,0,0-.182.7,7.765,7.765,0,0,0-.1,1.014q-.024.6-.029.95t0,1.039q.005.684.005.753t-.005.753q-.005.684,0,1.039t.029.95a7.765,7.765,0,0,0,.1,1.014,3.928,3.928,0,0,0,.182.7A2.575,2.575,0,0,0,3.1,13.461a3.952,3.952,0,0,0,.7.182,7.766,7.766,0,0,0,1.014.1q.6.024.95.029t1.039,0l.753-.005.753.005q.684.005,1.039,0t.95-.029a7.765,7.765,0,0,0,1.014-.1,3.952,3.952,0,0,0,.7-.182,2.575,2.575,0,0,0,1.438-1.438,3.952,3.952,0,0,0,.182-.7,7.766,7.766,0,0,0,.1-1.014q.024-.6.029-.95t0-1.039q-.005-.684-.005-.753t.005-.753q.005-.684,0-1.039t-.029-.95a7.765,7.765,0,0,0-.1-1.014,3.876,3.876,0,0,0-.183-.7,2.575,2.575,0,0,0-1.438-1.438,3.952,3.952,0,0,0-.7-.182,7.765,7.765,0,0,0-1.014-.1q-.6-.024-.95-.029t-1.039,0l-.753.005Zm7.563,6.2q0,2.255-.049,3.122a4.619,4.619,0,0,1-1.221,3.171,4.619,4.619,0,0,1-3.171,1.221q-.867.049-3.122.049t-3.122-.049A4.619,4.619,0,0,1,1.27,13.855,4.619,4.619,0,0,1,.049,10.684Q0,9.817,0,7.563T.049,4.441A4.619,4.619,0,0,1,1.27,1.27,4.619,4.619,0,0,1,4.441.049Q5.308,0,7.563,0t3.122.049A4.619,4.619,0,0,1,13.855,1.27a4.619,4.619,0,0,1,1.221,3.171Q15.125,5.308,15.125,7.563Z" transform="translate(-7306.563 -3339.563)"/></g></svg>