<svg width="20" height="20" viewBox="0 0 20 20" fill="none" xmlns="http://www.w3.org/2000/svg">
<path d="M17.5 20H2.5C1.83696 20 1.20107 19.7366 0.732233 19.2678C0.263392 18.7989 0 18.163 0 17.5L0 2.5C0 1.83696 0.263392 1.20107 0.732233 0.732233C1.20107 0.263392 1.83696 0 2.5 0L17.5 0C18.163 0 18.7989 0.263392 19.2678 0.732233C19.7366 1.20107 20 1.83696 20 2.5V17.5C20 18.163 19.7366 18.7989 19.2678 19.2678C18.7989 19.7366 18.163 20 17.5 20Z" fill="#007EBB"/>
<path fill-rule="evenodd" clip-rule="evenodd" d="M17.222 17.222H14.255V12.167C14.255 10.781 13.728 10.007 12.631 10.007C11.438 10.007 10.814 10.813 10.814 12.167V17.222H7.95398V7.59202H10.814V8.89202C11.1191 8.39922 11.5465 7.99373 12.0546 7.71494C12.5628 7.43616 13.1344 7.29357 13.714 7.30102C15.757 7.30102 17.214 8.54802 17.214 11.128L17.222 17.222ZM4.54198 6.33202C4.18994 6.3348 3.84501 6.23294 3.55094 6.03937C3.25688 5.84581 3.02694 5.56926 2.8903 5.24481C2.75365 4.92036 2.71646 4.56263 2.78343 4.21701C2.85041 3.87139 3.01854 3.55345 3.26649 3.30353C3.51444 3.05361 3.83104 2.88297 4.17612 2.81326C4.5212 2.74355 4.87921 2.77792 5.20473 2.91199C5.53025 3.04607 5.80861 3.27381 6.0045 3.56633C6.20038 3.85886 6.30497 4.20297 6.30498 4.55502C6.3059 4.78746 6.26103 5.01781 6.17293 5.23291C6.08483 5.44801 5.95522 5.64364 5.79151 5.80865C5.6278 5.97366 5.43319 6.10481 5.2188 6.19461C5.0044 6.28441 4.77442 6.3311 4.54198 6.33202ZM3.06498 17.222H6.04698V7.59202H3.06498V17.222Z" fill="white"/>
</svg>
