<svg width="20" height="20" viewBox="0 0 20 20" fill="none" xmlns="http://www.w3.org/2000/svg">
<path d="M18.1671 8.36698H17.4961V8.33198H9.99611V11.667H14.7061C14.349 12.6774 13.6768 13.5463 12.7884 14.1457C11.9001 14.7451 10.8427 15.0432 9.77206 14.9961C8.70146 14.949 7.67431 14.5592 6.84204 13.8841C6.00977 13.209 5.41642 12.2844 5.14946 11.2465C4.8825 10.2087 4.95606 9.11249 5.35928 8.1196C5.76251 7.12672 6.47407 6.28965 7.38907 5.7318C8.30408 5.17396 9.3741 4.92485 10.4414 5.02121C11.5087 5.11756 12.5168 5.55428 13.3171 6.26698L15.6741 3.90998C14.2724 2.60783 12.4649 1.82824 10.5558 1.70237C8.64669 1.5765 6.75251 2.11205 5.19194 3.21889C3.63137 4.32574 2.49967 5.93633 1.98725 7.77967C1.47483 9.62301 1.61297 11.5866 2.37843 13.34C3.14389 15.0935 4.48994 16.5298 6.19011 17.4072C7.89027 18.2847 9.84079 18.5497 11.7135 18.1578C13.5861 17.7659 15.2666 16.7409 16.4723 15.2553C17.6779 13.7697 18.335 11.9142 18.3331 10.001C18.3313 9.4522 18.2757 8.90491 18.1671 8.36698Z" fill="#FFC107"/>
<path d="M2.62793 6.12204L5.36593 8.13004C5.66441 7.38606 6.13773 6.72494 6.74583 6.20264C7.35394 5.68033 8.07892 5.31222 8.85943 5.12945C9.63993 4.94669 10.453 4.95465 11.2298 5.15267C12.0065 5.35068 12.7242 5.73293 13.3219 6.26704L15.6789 3.91004C14.7435 3.03436 13.6184 2.38666 12.3913 2.01748C11.1643 1.6483 9.86859 1.56762 8.60525 1.78174C7.34191 1.99586 6.14513 2.49899 5.10829 3.25187C4.07145 4.00475 3.22258 4.98702 2.62793 6.12204Z" fill="#FF3D00"/>
<path d="M10.001 18.336C12.0677 18.3355 14.0598 17.5634 15.587 16.171L13.008 13.989C12.3835 14.4621 11.6563 14.7815 10.8854 14.9212C10.1144 15.0608 9.32138 15.0169 8.57057 14.7929C7.81977 14.5689 7.1323 14.1711 6.56391 13.6319C5.99551 13.0926 5.56218 12.427 5.29903 11.689L2.58203 13.784C3.27845 15.1532 4.34006 16.3031 5.64942 17.1065C6.95878 17.9099 8.46486 18.3354 10.001 18.336Z" fill="#4CAF50"/>
<path d="M18.171 8.36898H17.5V8.33398H10V11.667H14.71C14.3821 12.59 13.7911 13.3969 13.01 13.988L15.589 16.171C16.4657 15.4023 17.1652 14.4526 17.6393 13.3874C18.1134 12.3222 18.3507 11.1668 18.335 10.001C18.3338 9.45293 18.2788 8.90632 18.171 8.36898Z" fill="#1976D2"/>
</svg>
