<svg xmlns="http://www.w3.org/2000/svg" width="40" height="40" viewBox="0 0 40 40"><defs><style>.a{fill:#238cc8;}.b{fill:#fff;}</style></defs><g transform="translate(7371 3352)"><rect class="a" width="40" height="40" rx="4" transform="translate(-7371 -3352)"/><path class="b" d="M3.592,15.125V4.92H.2v10.2ZM1.9,3.526A1.768,1.768,0,1,0,1.919,0a1.768,1.768,0,1,0-.044,3.526H1.9Zm3.573,11.6H8.861v-5.7A2.322,2.322,0,0,1,8.973,8.6a1.857,1.857,0,0,1,1.74-1.241c1.227,0,1.718.936,1.718,2.308v5.459h3.392V9.274c0-3.135-1.673-4.593-3.905-4.593A3.378,3.378,0,0,0,8.838,6.4h.023V4.92H5.47c.044.958,0,10.2,0,10.2Z" transform="translate(-7358.912 -3339.563)"/></g></svg>