<svg xmlns="http://www.w3.org/2000/svg" width="40" height="40" viewBox="0 0 40 40"><defs><style>.a{fill:#55acee;}.b{fill:#fff;}</style></defs><g transform="translate(7423 3352)"><rect class="a" width="40" height="40" rx="4" transform="translate(-7423 -3352)"/><path class="b" d="M18.15,4.769a4.878,4.878,0,0,1-.678.971,5,5,0,0,1-1.224,1.032q.02.162.03.3a11.013,11.013,0,0,1-.779,4.219,11.109,11.109,0,0,1-4.421,5.493,11.624,11.624,0,0,1-6.92,1.264A7.946,7.946,0,0,1,0,16.444a7.748,7.748,0,0,0,5.544-1.6,3.819,3.819,0,0,1-3.521-2.61,2.367,2.367,0,0,0,.789.04,7.341,7.341,0,0,0,.89-.122,4.174,4.174,0,0,1-2.529-1.963A4.231,4.231,0,0,1,.749,8.33a3.555,3.555,0,0,0,1.679.506A4.339,4.339,0,0,1,.779,6.155a4.965,4.965,0,0,1,.455-2.418,12.717,12.717,0,0,0,4.32,3.237,8.949,8.949,0,0,0,3.389.708A4.529,4.529,0,0,1,9.4,4.809a3.914,3.914,0,0,1,2.337-1.7A3.449,3.449,0,0,1,15.2,4.182a6.159,6.159,0,0,0,2.408-.89,3.653,3.653,0,0,1-1.659,2.145,10.521,10.521,0,0,0,2.205-.668Z" transform="translate(-7412.075 -3342.562)"/></g></svg>