<svg xmlns="http://www.w3.org/2000/svg" width="40" height="40" viewBox="0 0 40 40"><defs><style>.a{fill:#ef4e41;}.b{fill:#fff;fill-rule:evenodd;}</style></defs><g transform="translate(7267 3352)"><rect class="a" width="40" height="40" rx="4" transform="translate(-7267 -3352)"/><path class="b" d="M11.532,17.852V11.81l5.809,3.032ZM24.29,10.764a4.642,4.642,0,0,0-.855-2.135,3.077,3.077,0,0,0-2.155-.91C18.271,7.5,13.757,7.5,13.757,7.5h-.009s-4.514,0-7.523.217a3.077,3.077,0,0,0-2.155.91,4.651,4.651,0,0,0-.855,2.135A32.532,32.532,0,0,0,3,14.244v1.631a32.55,32.55,0,0,0,.215,3.481,4.643,4.643,0,0,0,.855,2.135,3.639,3.639,0,0,0,2.371.919c1.72.164,7.312.215,7.312.215s4.52-.006,7.528-.224a3.076,3.076,0,0,0,2.155-.91,4.649,4.649,0,0,0,.855-2.135,32.55,32.55,0,0,0,.215-3.481V14.244a32.515,32.515,0,0,0-.215-3.481Z" transform="translate(-7260.753 -3347.063)"/></g></svg>