<svg xmlns="http://www.w3.org/2000/svg" xmlns:xlink="http://www.w3.org/1999/xlink" width="257.219" height="57" viewBox="0 0 257.219 57"><defs><style>.a{fill:#fff;}.b{fill:url(#a);}.c{fill:url(#b);}</style><linearGradient id="a" x1="0.402" y1="1.348" x2="0.629" y2="-0.429" gradientUnits="objectBoundingBox"><stop offset="0.253" stop-color="#f15a29"/><stop offset="0.336" stop-color="#f37123"/><stop offset="0.602" stop-color="#f9b610"/><stop offset="0.795" stop-color="#fde104"/><stop offset="0.892" stop-color="#fff100"/></linearGradient><linearGradient id="b" x1="0.402" y1="1.349" x2="0.629" y2="-0.428" gradientUnits="objectBoundingBox"><stop offset="0.296" stop-color="#f15a29"/><stop offset="0.444" stop-color="#f47b20"/><stop offset="0.769" stop-color="#fccf09"/><stop offset="0.892" stop-color="#fff100"/></linearGradient></defs><g transform="translate(0.082)"><g transform="translate(5.08 5.53)"><path class="a" d="M153.545,19.261c0-1.543-1.9-.9-2.443-.772l-4.983,1.672c-1.093.321-2.218,1-2.218,2.218V65.3c0,3.44.547,3.986,3.89,3.986h1.543c3.665,0,4.212-.547,4.212-4.34Z" transform="translate(-102.773 -17.91)"/><path class="a" d="M342.6,44.733C341.5,34.414,333.5,31.1,324.978,32.1c-2.315.225-4.662,1.318-6.976,1.993,0-.1-.225-.225-.225-.321V30.009h0V19.561c0-1.543-1.9-.9-2.443-.772l-5.015,1.672c-1.093.321-2.218,1-2.218,2.218V64.6c0,2.122,1,3.665,3.215,3.89a149.9,149.9,0,0,0,15.624,1c8.552-.321,14.081-4.887,15.528-12.635A47.8,47.8,0,0,0,342.6,44.733Zm-9,5.658a15.548,15.548,0,0,1-.225,2.54c-1.222,9.1-6.88,9.645-14.21,7.973-.675-.1-1.447-1.672-1.543-2.54-.225-2.443,0-11.863-.1-14.081a3.177,3.177,0,0,1,2.54-3.665C329.286,38.3,333.819,40.522,333.594,50.392Z" transform="translate(-214.185 -18.114)"/><path class="a" d="M673.861,72.62c-.1-6.558-3.311-11.091-8.552-12.313A16.785,16.785,0,0,0,652,62.622c-1,.675-1.993,1.318-3.118,2.122-2.54-3.986-6.333-5.208-10.77-4.983a17.087,17.087,0,0,0-9.966,4.212V60.661c0-1.543-1.9-.9-2.443-.772l-4.983,1.672c-1.093.321-2.218,1-2.218,2.218V91.074c0,6.333.1,6.43,6.43,6.333,2.218,0,3.215-1,3.215-3.215V76.767c0-.772.1-1.543.1-2.315a7.955,7.955,0,0,1,8.1-7.1c3.311.225,4.662,2.315,4.662,7.426V91.3c0,5.98,0,5.883,5.883,5.98,2.668,0,3.665-.9,3.665-3.536-.1-5.53-.1-11.188,0-16.75a12.205,12.205,0,0,1,.9-4.887,7.685,7.685,0,0,1,8.777-4.662c2.99.675,3.987,2.443,3.987,6.976V93.067c0,3.536.675,4.212,4.115,4.212h1.318c3.761,0,4.34-.45,4.34-4.115C673.957,86.38,673.957,79.5,673.861,72.62Z" transform="translate(-424.794 -46.001)"/><path class="a" d="M51.668,60.248h-22.5c-1.993,0-3.536-.675-3.665-2.765-.1-3.311,0-24.851,0-27.391,0-3.665.772-4.533,4.437-4.533H49.1c1,0,1.543-1,1.9-1.9l1.447-4.34c.1-.45.675-2.122-.675-2.122H32.347c-2.443,0-4.983,0-7.426.1a8.672,8.672,0,0,0-8.873,8.873c-.1,10.963-.1,22.054,0,33.049.1,5.433,3.986,9.1,9.42,9.1h23.5c1,0,1.543-1,1.9-1.9l1.447-4.34C52.44,61.919,52.987,60.248,51.668,60.248Z" transform="translate(-15.975 -17.2)"/><path class="a" d="M222,71.563c-.322-5.53-3.44-8.648-8.873-9.966a28.863,28.863,0,0,0-8.97-.675s-1.543.1-2.218.225a31.344,31.344,0,0,0-3.215.772,11.976,11.976,0,0,0-4.437,2.443,5.942,5.942,0,0,0-1.222,1.993c-.321,1-.772,1.993-1,2.893h0a1.28,1.28,0,0,1-.1.45c0,.1-.1.225-.1.321h0c-.1.321-.1.547-.225.675,0,0-.225,1.318.547.9l1.093-.675a29.063,29.063,0,0,1,2.99-1.543c2.99-1.447,8.552-1.447,8.552-1.447.547,0,1,.1,1.672.1,4.662.321,6.558,2.893,5.337,7.651a30.016,30.016,0,0,0-3.118-.321c-4.212.225-8.423.1-12.41,1-5.755,1.222-7.973,5.112-7.748,11.316.225,5.337,3.311,8.777,8.777,9.966a21.205,21.205,0,0,0,15.849-2.765c.45,3.986,3.215,3.311,5.755,3.311,1.993,0,3.118-1,3.118-2.765C222.227,87.413,222.324,79.44,222,71.563ZM209.689,89.856a27.1,27.1,0,0,1-7.876,1.093c-2.443,0-3.536-1.9-3.665-4.34a4.07,4.07,0,0,1,3.44-4.533,18.017,18.017,0,0,1,4.437-.225,15.577,15.577,0,0,1,2.122,0c1.672.225,3.665-.225,4.212,2.122C213.129,87.091,212.454,89.084,209.689,89.856Z" transform="translate(-133.07 -46.808)"/><path class="a" d="M533.1,71.563c-.321-5.53-3.44-8.648-8.873-9.966a28.864,28.864,0,0,0-8.97-.675s-1.543.1-2.218.225a31.346,31.346,0,0,0-3.215.772,11.976,11.976,0,0,0-4.437,2.443,5.942,5.942,0,0,0-1.222,1.993c-.321,1-.772,1.993-1,2.893h0a1.28,1.28,0,0,1-.1.45c0,.1-.1.225-.1.321h0c-.1.321-.1.547-.225.675,0,0-.225,1.318.547.9l1.093-.675a29.065,29.065,0,0,1,2.99-1.543c2.99-1.447,8.552-1.447,8.552-1.447.547,0,1,.1,1.672.1,4.662.321,6.558,2.893,5.337,7.651a30.016,30.016,0,0,0-3.118-.321c-4.212.225-8.423.1-12.41,1-5.755,1.222-7.973,5.112-7.748,11.316.225,5.337,3.311,8.777,8.777,9.966a21.205,21.205,0,0,0,15.849-2.765c.45,3.986,3.215,3.311,5.755,3.311,1.993,0,3.118-1,3.118-2.765C533.327,87.413,533.456,79.44,533.1,71.563ZM520.918,89.856a27.1,27.1,0,0,1-7.877,1.093c-2.443,0-3.536-1.9-3.665-4.34a4.07,4.07,0,0,1,3.44-4.533,18.017,18.017,0,0,1,4.437-.225,15.577,15.577,0,0,1,2.122,0c1.672.225,3.665-.225,4.211,2.122C524.358,87.091,523.586,89.084,520.918,89.856Z" transform="translate(-344.155 -46.808)"/><path class="a" d="M452.108,61.041c-8.873,2.218-10.545,3.89-12.86,6.2v-5.98c0-1.318-1.768-.772-2.218-.675l-4.437,1.447c-1,.321-1.993.9-1.993,1.993V95.086a2.584,2.584,0,0,0,2.893,2.893h2.893c3.215,0,3.761-.547,3.761-3.89V79.237a10.317,10.317,0,0,1,6.108-8.777c2.99-1.672,5.433-1.447,6.2-3.89l.772-3.215C453.554,62.391,453.972,60.494,452.108,61.041Z" transform="translate(-297.302 -46.509)"/></g><path class="b" d="M711.2,0l-3.44,1.093-6.108,1.9-24.08,7.555h0l-7.651,2.443c-.547.225-.9.675-.772,1a1.232,1.232,0,0,0,1.222.772l33.6-.1c3.44.1,3.761-.45,4.211-1.768l1.993-8.1Z" transform="translate(-454.059)"/><path class="c" d="M42,72.4l-3.44,1.093-6.108,1.9L8.367,82.945h0L.716,85.388c-.547.225-.9.675-.772,1a1.232,1.232,0,0,0,1.222.772l33.6-.1c3.44.1,3.761-.45,4.212-1.768l1.993-8.1Z" transform="translate(0 -49.124)"/></g></svg>