<svg xmlns="http://www.w3.org/2000/svg" width="32" height="32" viewBox="0 0 32 32"><defs><style>.a{fill:#ec6727;}</style></defs><g transform="translate(-0.001 0.001)"><path class="a" d="M142.215.081a.625.625,0,0,0-.628,0L130.134,6.859a.625.625,0,0,0,.636,1.076l8.218-4.859L123.681,18.958l-7.613-2.329L126,10.753a.625.625,0,0,0-.636-1.076l-11.155,6.6a.625.625,0,0,0,.135,1.136l9.092,2.782,4.011,7.3a.143.143,0,0,0,.013.02.623.623,0,0,0,.972.126l4.612-4.507,8.675,2.654a.625.625,0,0,0,.808-.6V.624A.625.625,0,0,0,142.215.081Zm-5.461,7.113-9.27,13.382a.625.625,0,0,0-.111.356v3.823l-2.739-4.985Zm-8.131,18.512V21.777l3.062.937ZM129,20.585,141.28,2.856V24.342Z" transform="translate(-110.529 0)"/><path class="a" d="M120.806,727.176a.625.625,0,0,0-.884,0l-5.835,5.835a.625.625,0,0,0,.884.884l5.834-5.835A.625.625,0,0,0,120.806,727.176Z" transform="translate(-110.528 -705.453)"/><path class="a" d="M1.622,989.482.184,990.919a.625.625,0,0,0,.884.884l1.438-1.437a.625.625,0,0,0-.884-.884Z" transform="translate(0 -959.987)"/><path class="a" d="M265.521,1036.57a.625.625,0,1,0,.442.183A.629.629,0,0,0,265.521,1036.57Z" transform="translate(-257.046 -1005.858)"/><path class="a" d="M320.807,879.806l-3.09,3.09a.625.625,0,1,0,.884.884l3.09-3.09a.625.625,0,0,0-.884-.884Z" transform="translate(-308.124 -853.56)"/><path class="a" d="M680.5,871.8l-3.1,3.1a.625.625,0,0,0,.884.884l3.1-3.1a.625.625,0,0,0-.884-.884Z" transform="translate(-657.155 -845.793)"/><path class="a" d="M562.625,282.6a.625.625,0,1,0-.442-.183A.627.627,0,0,0,562.625,282.6Z" transform="translate(-545.347 -273.013)"/></g></svg>